/* XPM */
static char *_652302785831[] = {
/* columns rows colors chars-per-pixel */
"50 50 58 1 ",
"  c #5C270E",
". c #622B0E",
"X c #672D12",
"o c #6A2F12",
"O c #6C3212",
"+ c #753514",
"@ c #783715",
"# c #773914",
"$ c #7B3A16",
"% c #7D3C18",
"& c #7D401B",
"* c #813E16",
"= c #813F19",
"- c #834117",
"; c #854319",
": c #8A461A",
"> c #85481E",
", c #8D4A1B",
"< c #924D1C",
"1 c #96511C",
"2 c #9B541D",
"3 c #9F581F",
"4 c #A0571F",
"5 c #A1581F",
"6 c #924F20",
"7 c #955221",
"8 c #9B5621",
"9 c #9E5924",
"0 c #A45C21",
"q c #A95F23",
"w c #A25F28",
"e c #A76026",
"r c #AB6223",
"t c #A56028",
"y c #AD6529",
"u c #AE692A",
"i c #B16624",
"p c #B66A26",
"a c #BA6D27",
"s c #B26728",
"d c #B46B2A",
"f c #BC6F28",
"g c #B7702F",
"h c #BE7029",
"j c #BD7431",
"k c #C1742D",
"l c #C7782D",
"z c #C8782D",
"x c #C47730",
"c c #C57B34",
"v c #C97D33",
"b c #CC8237",
"n c #DB8735",
"m c #DE8936",
"M c #DE8C38",
"N c #E28F3A",
"B c #E49843",
"V c None",
/* pixels */
"BNmNnnmmmmmmmmmmmmmmnnnmmmmmmmmmmmmnmmNNnNnNvNNvNv",
"9xlzzzlzzzzzzzzzzzzzzzzzzzzzzzzzzzzlaaspiaaarkzzz2",
"@0qriahhhhhaaahhhhaahhhahahaahahahhaaaiiispiir5q5*",
"%qrqqipfhhhhhhhhhhhhahhhhhhhhhhahhhaaaapppppiiikr*",
":rrrqisahhhhkffkhhhhhhhhhhhhhhhhhhaaiiiiiiiiirqq2*",
"*ikaffkfhhhhakffhhhhhhhkhhhhhhhhhhkaahhhkkkkkair1o",
"$saakkfkkakkkaffaaaaahhahhhaahhhhhhhhahaii5411<*=+",
"$rkaaaffaaaaairyrrrihakpaaahhhhhahahahaaaikiiakiq*",
"@qkkffapirqipffaq0888wfkipaiq0773ripaaaaaaaaaapr2*",
"@<00sappiq8<<180tq8760q02<<10ygkjjjghpiaapaaapaaq*",
",dasq00rrpfpprq880qqqqqqikzzzzkpaaapapppppppppaaq+",
"%ippppppappppppaasdadkakaakiaiaippppppppppppppip5*",
"@qsppppdppppppppspppaiapppppappspiiirrrrr00003002*",
"@7000rpdpppdppppaspppaiaappasspipiiiiiiiiiiipppiq+",
"+;>;:10qrrisppppaipppipaippipipppppaiippppppiiii4@",
">sw976,,,,,,<<<1840qiiiiiipiipiiiiiiiiiiiiiiiiii4@",
"&upppppipiiirir005riiiiiiiiiiiiiiiiiiiiiiiiiiiips;",
"&riiiiiiiiiiiiiisiiiiriiiiiriiiiriiiiiiiiiiiiiiir*",
"O20rr0rrr0riiiiriiiiiiiiiiiiiiiiiiiiiiiiriiqiiiiq@",
">ipiiirriiiiiiiiriiiiiriiiiiiriiiiiiiiriiiiiiirr8@",
">aiiiriiiiririririririririiiqrqq55053323221121:&+O",
"&riiirririiririrriirrrrrrr5555421<,,::::,,<11121,#",
"$rrrrrrrrrrrrrrrrirrrrrrrrr5rrrrrrrrrrrrrrrrirrr<+",
"#3rrrrrrrrrrrrrrr5rrrrqqr5rrrqqqrr0rr0trr0r0qr002@",
"+,5r00rrr0rrr0rrrerrrrrrrrqqqrr0rrt533111<2122<2<@",
"#29rrrr0rrr0r0333311111112555053231222212211<2803@",
"#8rr0rr000r0333323303033211<<11,,,61<1716217776>$o",
"X#%;,<<113000rr00000reriiiaagjjhgduiertrq0q0<<<78%",
"#<11<,,1330000000r000000000000005r505qq50042;$:*<%",
"#13000000000000000000000000000005q50555042<<<1<28#",
"O1000000000000000300000000000000555q5554550405002+",
"+<00000000000003000355555555555555555555554455242@",
"+111<<,,<2204545555555555555444455542555554445541@",
"$0921<<<<2005500555555522552444444444455444444551+",
"#,::*%$$%-;;;:::::,,1555445544444444444444442221%X",
"&>8tww871,>-$+++@*:125552442444424444444441211447$",
">drqq05055443222242532334224244224242242221****2>+",
"#22228224424332422222322244222222211111***<<22550%",
"+<8222244222424224242222222222222222221254222242<@",
"%78222222222222222222222222222222221222222221222<+",
"&33321222222222222122221312221122122122122212212<+",
"&22122212112112112211121121122211211111211121111<+",
"&03321111111111111111111111111111111112112111<,*OX",
"&21111111111111111111111<<<,,,,:::::---*******@@++",
"#<1<1111<11111111111111<<<<,<:<<<,,,:,,:,,,<11128%",
"+-<1<11111<111111<,,::,<12086<::,11111111<<<1<,1,@",
">1<1<1<<,,,,,,::,,7739tt8<::,66,-**-:,,1<<<<<<<11%",
"&1<<,,,,<,,,:-15w9982,,,:-%%$=>,<,:-::::::,<,<<::@",
"+-::-:::,,,,<<<<<<<,<<871,,,,,6,,:<<<<,,:::<<,<:;+",
".O....+VVVVVVVVVVVVVVVVVVVVVVVVVVVVVVVVVVVVVVVV@. "
};
