/* XPM */
static char *dd957885872b4db1ec653ffb25813e553hj5SnH3zRnUKuQW[] = {
/* columns rows colors chars-per-pixel */
"50 50 218 2 ",
"   c #000000",
".  c #0C070B",
"X  c #0D0D0D",
"o  c #1E0908",
"O  c #110E11",
"+  c #190E17",
"@  c #141113",
"#  c #1B171A",
"$  c #1C141A",
"%  c #290908",
"&  c #3A0504",
"*  c #23170E",
"=  c #20161E",
"-  c #352513",
";  c #251B23",
":  c #291A25",
">  c #311D2D",
",  c #2D232B",
"<  c #31222E",
"1  c #392734",
"2  c #3C383B",
"3  c #490504",
"4  c #570504",
"5  c #561517",
"6  c #630202",
"7  c #6C0201",
"8  c #760000",
"9  c #7C0000",
"0  c #4F3418",
"q  c #5C3D1A",
"w  c #541D21",
"e  c #4B2324",
"r  c #45332A",
"t  c #553C2B",
"y  c #412C3C",
"u  c #493A38",
"i  c #573D31",
"p  c #64292D",
"a  c #594213",
"s  c #754C0E",
"d  c #795518",
"f  c #584129",
"g  c #5A4537",
"h  c #674827",
"j  c #7D562B",
"k  c #684B39",
"l  c #764F30",
"z  c #795638",
"x  c #472C41",
"c  c #483444",
"v  c #52344C",
"b  c #543C4D",
"n  c #593B52",
"m  c #3A4A4F",
"M  c #4F4B4C",
"N  c #5B4446",
"B  c #6B454A",
"V  c #6F5744",
"C  c #6D544C",
"Z  c #745846",
"A  c #654658",
"S  c #704C5A",
"D  c #76575A",
"F  c #7E6552",
"G  c #405D64",
"H  c #6A4561",
"J  c #6B4A64",
"K  c #754E6C",
"L  c #6E5469",
"P  c #795769",
"I  c #7B5673",
"U  c #506B73",
"Y  c #776471",
"T  c #830001",
"R  c #8E0000",
"E  c #965C0B",
"W  c #885510",
"Q  c #945C13",
"!  c #9D620B",
"~  c #936D16",
"^  c #A3650A",
"/  c #AC6A0C",
"(  c #B46E0C",
")  c #BA730A",
"_  c #A36510",
"`  c #A77B17",
"'  c #895A2D",
"]  c #895D3A",
"[  c #906C26",
"{  c #87623A",
"}  c #92643E",
"|  c #A87B23",
" . c #C57A0B",
".. c #C67A0B",
"X. c #865E44",
"o. c #876448",
"O. c #966946",
"+. c #9C7249",
"@. c #876654",
"#. c #90675B",
"$. c #9B7554",
"%. c #A36E47",
"&. c #A6734C",
"*. c #B97B4D",
"=. c #A57B58",
"-. c #B87D51",
";. c #815F6A",
":. c #835A78",
">. c #846267",
",. c #867468",
"<. c #987C69",
"1. c #876578",
"2. c #956E78",
"3. c #927975",
"4. c #AC8017",
"5. c #B88817",
"6. c #D7840C",
"7. c #D38910",
"8. c #C89418",
"9. c #D89A16",
"0. c #E48D0C",
"q. c #E5910D",
"w. c #E79A12",
"e. c #DEA418",
"r. c #EBA415",
"t. c #EDA917",
"y. c #E5AA19",
"u. c #EDAD1A",
"i. c #EEB01B",
"p. c #F1B21C",
"a. c #AB815D",
"s. c #B7835B",
"d. c #918075",
"f. c #AB8562",
"g. c #A4876E",
"h. c #B38A65",
"j. c #BA8D67",
"k. c #BD936C",
"l. c #A78E78",
"z. c #BB9676",
"x. c #C48657",
"c. c #C58A5D",
"v. c #C8956A",
"b. c #CA966B",
"n. c #D79B6A",
"m. c #C29974",
"M. c #CD9D73",
"N. c #CEA37C",
"B. c #D2A176",
"V. c #DEA473",
"C. c #D2A379",
"Z. c #DBA679",
"A. c #D7A87C",
"S. c #DDA97D",
"D. c #E2AC7D",
"F. c #537D86",
"G. c #796D83",
"H. c #886A83",
"J. c #936686",
"K. c #9D778D",
"L. c #9B7295",
"P. c #A27A8D",
"I. c #A97A98",
"U. c #B37BA7",
"Y. c #56818A",
"T. c #5A8D9A",
"R. c #5C919C",
"E. c #62838A",
"W. c #6D8E99",
"Q. c #5D94A3",
"!. c #6A9BA6",
"~. c #70A7B3",
"^. c #7BB8C6",
"/. c #77C5D6",
"(. c #7ED1E3",
"). c #918E90",
"_. c #B89D84",
"`. c #AC9E90",
"'. c #AFA397",
"]. c #B587A9",
"[. c #B68AAE",
"{. c #A9A8A6",
"}. c #B7B3AE",
"|. c #C3A386",
" X c #E2AF81",
".X c #E4B082",
"XX c #C58DB8",
"oX c #C1BEBA",
"OX c #BFC0BF",
"+X c #8BBEC8",
"@X c #DB94CA",
"#X c #E091CC",
"$X c #EB97D8",
"%X c #F299DA",
"&X c #8AC8D6",
"*X c #91C6D2",
"=X c #84DAEE",
"-X c #88DAEC",
";X c #98D9E7",
":X c #85DDF2",
">X c #8CDEF1",
",X c #91DEF0",
"<X c #A1DBE8",
"1X c #8AE1F5",
"2X c #98E4F5",
"3X c #A2E5F4",
"4X c #A7E9F7",
"5X c #C5C6C6",
"6X c #CDD1D1",
"7X c #D6D8D9",
"8X c #D8DEE1",
"9X c #DBE2E4",
"0X c #E5E6E7",
"qX c #EBEFF1",
"wX c #EEF3F5",
"eX c #F2F5F6",
"rX c #F6F8F9",
"tX c #FEFEFF",
/* pixels */
"            X X X O X O X X X X X X X X X X X X X X X X X X X X O . X O O X X X X X O X X X X X X X ",
"            X X X X X X O X X X X X X X X X X # ; , u c c 2 > = O       X X X X X X X X X X X X X X ",
"X X X X X X             X X X X X X O O @ 1 N j ~ 5.8.8.8.8.4.{ N : .   X X X X X X X X X X X X X X ",
"X X X X X X             X X X X X # , N [ 8.y.i.p.p.p.p.p.i.i.i.9.D x   X X X X X X X X X X X X X X ",
"X X X X X X             X X X @ , N ` e.i.i.i.y.y.i.i.i.i.i.i.i.p.8.P : X X X X X X X X X X X X   . ",
"O X X X X X X X         X X = b [ e.i.i.i.i.r.q.9.i.i.i.i.i.i.i.i.8.P @ X X X X X X O X X X X X     ",
"X X X X X X X X         @ < C 8.i.i.i.u.r.q. .! 9.p.i.i.i.p.i.u.w.d I X X X X X X X X X X X X X     ",
"            X X X X X + c [ e.p.i.i.r.q.6./ E 7.u.p.i.i.i.y.r.q.^ d <.L v X X X X X X X X X X X     ",
"            X X X X = N ~ p.p.i.t.0.0.0...W  .0.w.u.t.r.w.0. .E ` y.y.4.P n X X X O X X X X X X X X ",
"            X X X = n ~ i.i.i.r.q.0.0.0.0.^ /  .6.6.6. .( ! W ! y.i.i.p.5.>.v X X X X X X X X X O X ",
"X X X X X X     X < ' i.i.t.w.q.0.0.0.0.0.0. ./ / _ / /  ./ s  .r.t.r.w.5.~ I n 2 X X X X X X X X X ",
"              + y F 8.i.9.) E _ ) ......( ^  .0.0.0.0.0.E a ) 6.6.) _ s W r.8.+.1.x X X X X X X     ",
"            $ A | y.i.u.q.! q O.} } } } ] l ' ' Q ^ / d h j ' ' ' } &.%.j Q e.p.5.2.v X X X X X     ",
"            K 4.i.i.y.q.E l v.D..XD.D..X X XC.M.j.&.+.v.D.D.n.D.D. X X XB.+.d 8.y.~ P.> X X X X     ",
"X X         :.` 5.9.q.W o.Z.D.m.a.=.s.C.D. X X.X X.X X X X XD.A.B.M.A.S.D..Xj.h 8.d h J O X X X     ",
"X X       + I t a 7.! z S.A.$.O.*.x.*.x.D. X X X X X X X X XM.&.} O.+.$.h.S.D.a.d ~ - K.J @ X X     ",
"X X X     1 D f.a 5.h M.D.a.%.*.o.@.,.,.@.$.C..X.X XD.D.D.a.o.<.3.,.@.O.O.M..X.Xz d f a.C 1 O O X X ",
"X X X     y S O.a W { D.D.v.%.,.OXqXrXrXqX}.d.h. X XD.B.d.{.9XrXtXrX9X`.o.C..X.Xh.a 0 a.V x     X X ",
"X X X     + S c.q a &.D.D.n.Y qXtXtXtXtXtXtXqX).z..XS.d.7XtXtXtXtXtXtXtX{.f..X.XC.- f b.C ;     X X ",
"X X X X X   A #.h - s.V.D.j.}.tXtXtXtXtX0X).oX7Xg.D.z.}.oX).7XtXtXtXtXtX9X<.D..XB.- j +.].          ",
"X X X X X X @ A l % O.n.D.m.'.rXtXtXtXtX9XM ).9Xl.D.k.OX{.M }.tXtXtXtXeX6Xg.D.D.&.e z P.X           ",
"X X X X X O X X + A t *.n.D.l.5XwXtXtXtXtXeXqXOXz..XA.`.7X9XwXeXrXeXqX8X`.B.D.x.f P v               ",
"X X X X X X X X X X x D &.n.A.z.{.6X9X9X8X6X}.m. X.XD.C.'.5X8X8X9X6XOX_.B.V.&.>.L.O                 ",
"X X X X X X X X X X X y I.X.c.V.B.m._._.z.N.B.=.k. Xm.h.S.N.|._.|.|.C.V.c.] J.x X X X X X X X X     ",
"X X X X X X X X X X X X X @X2.O.c.V.D. X.X.XS.$.$.a.+.+.D.D..X.XD.D.c.@.;.J.X X X X X X X X X X     ",
"X X X @ X X X O X X X X X X @ #XI.#.&.c.n.v.a.a.a.a.f.h.m.D.V.v.$.#.2.:.. X X X X X X X X X X X X X ",
"          X X X X X O X X X X X $ $XXXN g o.{ ] f f h o.O.z t 1.U.H X X X X X X X O X X X X X X X X ",
"          X X O X X X X X X X X %XXX).m Y.^.Y.2 f u u m !.F.m W.L.K O O X X X X X X X X X X X X X X ",
"            O X X X X X X X J [.W.*X&XG *X3X/.T.F.Y.Y.Q.;X;XG &X&XW.Y L X X X X X X X X X X X X     ",
"            X X X X X O   n ].W.4X2X~.G 3X,X=X=X(.(.(.=X=X2XU R.1X2XW.L b X X X X O X X X X X X     ",
"            O X X X X X   %XD N R./.U R.4X>X=X=X(.:X=X=X=X2X!.G /.Q.M g I X X X X X O X X X X X     ",
"                X X X X %X,.k.c.i G.m &X2X=X=X=X:X:X=X=X=X>X*Xm Y t x.j.A n X X X X X X X X X X X X ",
"                        [.$.V.O.].%XY <X2X=X=X=X=X=X=X=X=X-X<XU L.J.l V.$.M .           O X X X X X ",
"                      #XD V.-.>.v @XF.3X,X=X=X=X=X=X=X=X=X=X2XE.I.= P O.A.g x           O X X X X X ",
"                      @XF n.z $X  XX!.4X-X=X=X=X=X=X=X=X=X=X;X+XL.X H k Z.k y                       ",
"      X X X X X X X X U.o.c.L $   L.+X3X-X=X=X=X=X=X=X=X=X-X2X*XH.X X S j.Z 1       X X X X X X     ",
"      X X X X X X X O I Z =.C @X  [.E.&X=X-X:X-X:X:X:X:X-X-X&XY.H.X L C a.g 1       X X X X X X     ",
"      X X X X X X X X x >.h.@.z K.K e e M U F.T.Q.Q.T.Y.U M e 3 :.Y k o.=.M ;       X X X X X X     ",
"      X X X X X X X X X L @.o.- H.n 6 9 7 6 6 4 4 6 6 4 6 7 8 9 P J.r ] k c         X X X X X O     ",
"      X X X X X X X X O $ K 3.F H.A 7 9 8 8 6 3 5 p 4 4 6 8 9 9 B H.B Y H .         X X X X X X     ",
"      X X X X X X X X O X X ; , O A 9 9 8 7 6 e < , :.4 6 8 9 T p J.J.n             X X X X X X X X ",
"      X X X X X X X X X X X X X O S 9 9 8 9 T P X X , 6 R 8 8 T w I . X             X X X X X X X X ",
"      O X X X X X X X X X X X X X B 9 8 8 T 7 > X X X p R 8 9 T 5 :.X X             X X X X X X X X ",
"      X X X X X X X X X X X X X O w 4 4 7 R 5 $ X X O B R 9 4 4 3 L.X X             X X X X X X X X ",
"      O X X X X X X X X X X X X c * % 3 4 T 5 @ X X X S T 6 & % % 1 < X             X X X X X X X X ",
"      X X X X X X X X X X X   : > X . . o % % X X X X N % o . X . v y X             X X X X X O     ",
"      O X X X X X X X X     #       1 # , 2 c X X X X , L c , A c < X X             X X O X X X     ",
"      X O X X X X X O O                 X X X X X X X X # ; # , X . X X             X X X X X O     ",
"X X       O X X X X X O X X X X X   X X X X X X                         X X             X X X X X X ",
"                O O X   X X X X X X X X X X X X X X                   . @ X             X X X X X X "
};
