/* XPM */
static char *_4e7bf62fb8e4329ff3ffc06bbd53231ACRPZ72Sc0KKmY5F[] = {
/* columns rows colors chars-per-pixel */
"50 50 210 2 ",
"   c #000000",
".  c #070508",
"X  c #090609",
"o  c #0D090D",
"O  c #120D0E",
"+  c #0F0B10",
"@  c #130D12",
"#  c #171015",
"$  c #1C1315",
"%  c #1C141A",
"&  c #1F181E",
"*  c #2A0808",
"=  c #251719",
"-  c #2E221B",
";  c #35271D",
":  c #1F1620",
">  c #261B24",
",  c #2C1C24",
"<  c #301C23",
"1  c #2C2127",
"2  c #312423",
"3  c #3A2727",
"4  c #36272B",
"5  c #2F2630",
"6  c #3A2935",
"7  c #393639",
"8  c #470705",
"9  c #590302",
"0  c #4C1916",
"q  c #541515",
"w  c #670606",
"e  c #750404",
"r  c #7B0101",
"t  c #6D1013",
"y  c #461C20",
"u  c #532B2E",
"i  c #443326",
"p  c #443329",
"a  c #4F3A2D",
"s  c #553C28",
"d  c #4A3539",
"f  c #583F3A",
"g  c #643125",
"h  c #58411F",
"j  c #674818",
"k  c #764C1A",
"l  c #745011",
"z  c #74561B",
"x  c #594329",
"c  c #4F4134",
"v  c #5A4336",
"b  c #67492B",
"n  c #744C21",
"m  c #6F532E",
"M  c #775725",
"N  c #664C36",
"B  c #795437",
"V  c #453843",
"C  c #593746",
"Z  c #653742",
"A  c #25505B",
"S  c #3B5B64",
"D  c #424A4C",
"F  c #5A4A46",
"G  c #48524F",
"H  c #565348",
"J  c #494955",
"K  c #514857",
"L  c #47595C",
"P  c #5F5D52",
"I  c #644A48",
"U  c #6C514E",
"Y  c #7D5947",
"T  c #795756",
"R  c #5A625C",
"E  c #71614F",
"W  c #7D6953",
"Q  c #495A63",
"!  c #5B5765",
"~  c #64566B",
"^  c #566B6A",
"/  c #4E6C74",
"(  c #6E6F70",
")  c #880405",
"_  c #910000",
"`  c #8A5915",
"'  c #925B11",
"]  c #8B6718",
"[  c #986415",
"{  c #936B1D",
"}  c #9E721B",
"|  c #A2650B",
" . c #AC6A0B",
".. c #B26E0B",
"X. c #B5720C",
"o. c #BC760C",
"O. c #A26814",
"+. c #A87919",
"@. c #865A27",
"#. c #855935",
"$. c #865B39",
"%. c #905F3C",
"&. c #8A6425",
"*. c #936927",
"=. c #987220",
"-. c #876636",
";. c #96653B",
":. c #C5790B",
">. c #CC7D0B",
",. c #D07F0B",
"<. c #835A50",
"1. c #8F6849",
"2. c #9A6946",
"3. c #9D6944",
"4. c #946854",
"5. c #9C7553",
"6. c #A56D45",
"7. c #AC734A",
"8. c #A7784D",
"9. c #B2764A",
"0. c #B5794D",
"q. c #BA7B4E",
"w. c #A77855",
"e. c #B67C53",
"r. c #BD7E52",
"t. c #8F6568",
"y. c #A57D63",
"u. c #C07F53",
"i. c #B5861D",
"p. c #BC8C21",
"a. c #D4830C",
"s. c #D0870E",
"d. c #DA860C",
"f. c #DE890C",
"g. c #C38D1B",
"h. c #C9941B",
"j. c #D99716",
"k. c #D39C1C",
"l. c #E38C0C",
"z. c #E88E0C",
"x. c #E6920D",
"c. c #E9960E",
"v. c #E59712",
"b. c #E59D13",
"n. c #E99D12",
"m. c #DDA017",
"M. c #DCA31A",
"N. c #EBA414",
"B. c #E5A718",
"V. c #EBAD1A",
"C. c #EFB119",
"Z. c #F1B21A",
"A. c #D79E21",
"S. c #AC825F",
"D. c #BA8358",
"F. c #AE886A",
"G. c #BB8761",
"H. c #A38B77",
"J. c #C38254",
"K. c #CB8655",
"L. c #CD8957",
"P. c #C5885B",
"I. c #CB8A5A",
"U. c #D08754",
"Y. c #D28A57",
"T. c #D28C59",
"R. c #C78D6A",
"E. c #D0986E",
"W. c #DB9B69",
"Q. c #CD9A76",
"!. c #497B86",
"~. c #617C88",
"^. c #847D9E",
"/. c #5A848D",
"(. c #578892",
"). c #7A869B",
"_. c #709398",
"`. c #5D96A3",
"'. c #679AA5",
"]. c #7D9AAB",
"[. c #5FA3B2",
"{. c #65A5B3",
"}. c #6CB3C4",
"|. c #78B3C5",
" X c #76C3D4",
".X c #7FD7EC",
"XX c gray55",
"oX c #A9978A",
"OX c #A79A90",
"+X c #B1A397",
"@X c #BBB8B5",
"#X c #91B0CB",
"$X c #A1B8D2",
"%X c #86C8D8",
"&X c #94CDDE",
"*X c #82D2E4",
"=X c #89D6E8",
"-X c #83D9ED",
";X c #94D6EA",
":X c #86DEF1",
">X c #8BDDF2",
",X c #94E1F6",
"<X c #D1CDCA",
"1X c #CCCFD0",
"2X c #D6DDE0",
"3X c #E3E3E3",
"4X c #E0E6E9",
"5X c #EEF2F5",
"6X c #F4F5F6",
"7X c #FDFEFE",
/* pixels */
"                              .   . . . .         .                                                 ",
"                          . o $ - 3 i i i i ; - = O o X                                             ",
"                        o ; x &.i.i.h.h.h.i.i.+.] z b a - # +                                       ",
"                      o 3 { M.V.B.N.N.B.N.c.b.b.N.m.k.h.} m v 2 @ .                                 ",
"                      O j M.Z.N.b.x.l.l.l.l.l.l.l.x.x.x.v.j.g.=.N 3 @ .                             ",
"                      O j M.N.x.l.f.f.a.a.d.l.l.l.f.l.l.l.z.x.v.k.=.N 1 @                           ",
"                      X ; { j.z.l.l.l.a. . .s.l.l.l.l.l.l.l.l.x.x.b.h.&.v > .                       ",
"                        + i [ d.l.l.l.l.d.o.| o.l.l.l.l.l.l.l.l.l.x.N.B.p.m 2 .                     ",
"                          # f [ >.d.d.l.l.>.|  .f.l.l.l.l.l.l.l.l.l.x.N.Z.h.x O                     ",
"                          @ F O.....X.X... ...>.l.l.l.l.l.l.l.l.l.l.l.n.Z.M.j O                     ",
"                          # m h.j.o.:.>.>.a.f.l.l.l.l.l.l.l.f.d.a.,.a.s.j.+.N > X                   ",
"                          % j +.*.` ..>.>.:.o.o.>.f.l.l.l.l.f.:.....X.X.X.} -.U a = @ .             ",
"                        X 6 Y 8.7.;.%.@.@.j l ..a.f.l.l.l.l.l.f.f.d.d.f.f.v.j.A.p.*.N 4 o           ",
"                        > t.Q.E.e.7.0.u.r.2.` ..j.c.z.z.l.l.l.l.l.l.l.l.l.l.c.n.V.V.k.*.p X         ",
"                      O I Q.W.J.9.6.3.q.T.T.0.*.} k.N.x.a.f.l.l.x.l.l.l.l.l.l.l.B.C.Z.M.z $         ",
"                      @ T Q.e.y.w.9.6.3.K.T.T.q.;.{ j.c.X. .,.,.a.f.l.l.l.l.l.l.x.B.Z.V.] =         ",
"                      % T F.+X<X<XoXw.9.L.Y.T.T.J.#.+.B.| j &.*.*.O.,.l.l.l.l.l.l.n.Z.B.z $         ",
"                      % I oX3X7X7X3XoXe.Y.T.T.T.T.6.] s.[ B F.F.5.<.' d.l.l.l.l.l.n.Z.h.x o         ",
"                      % F XX@X6X7X6X@X7.K.T.T.T.T.J.@.+.` 1.5.6.r.w.k :.z.l.z.l.f.N.M.] 2 .         ",
"                      % I t.XX4X7X6X@Xw.L.T.T.I.T.K.#.] z 2.#.0.T.8.k :.z.l.l.f.v.B.p.a o           ",
"                      6 <.H.@X5X7X4XOXe.T.T.T.T.Y.9.b j ;.9.%.q.K.#.` d.l.f.l.v.N.i.v $             ",
"                  . : U R.R.OX1X2X@Xy.K.T.T.L.T.U.3.h #.u.9.6.6.B l :.l.l.c.n.j.} a #               ",
"                  X V t.R.T.G.H.H.y.J.T.T.T.T.T.Y.u.9.7.6.$.$.$.g ' f.c.N.B.g.M 3 o                 ",
"                  o d t.4.4.R.E.I.L.T.T.L.L.L.T.Y.Y.Y.L.u.u.u.J.6.n O.j.k.=.s = .                   ",
"                    O $ 2 V T y.G.D.e.7.7.r.L.T.T.T.T.T.U.U.L.J.2.v f N h - o                       ",
"                          o = d f v f B 2.e.K.L.U.u.8.2.4.4.<.v 3 $ @ @ . .                         ",
"                              o o @ = 4 f Y $.;.2.B c G / /.K > .                                   ",
"                                      . % V D H H G / (.(.(.Q 1 .                                   ",
"                                        O J (.(./ {.*X=X*X'.L V O                                   ",
"                                      X 1 /.%X`.(.*X:X=X-X%X/ 7 &                                   ",
"                                      o K #X.X/ !.[.'._._./.S S V o                                 ",
"                                      > ^ =X.X!.A A H 0.8.7 S ).! @                                 ",
"                                .   . V ].>X-X X[.!.H J.J.H {.&X( 5 .                               ",
"                                    o J #X>X-X:X:X}.P J.D.R  X,X].C +                               ",
"                                    + ! =X-X-X:X-X`.E I.w./  X,X$X~ +                               ",
"                                    + ~ ;X>X-X|.'.^ 5.P.W `..X,X$X! @                               ",
"                                    . 6 ^.#X'.L W S.I.5.^ }.|.|.~.V X                               ",
"                                      o 5 J 7 p 8.W.P.x A ^ K d V #                                 ",
"                                        . % < N 5.9.<.0 e e q < o                                   ",
"                                          . 1 a b s 0 e ) g < o                                     ",
"                                            @ 3 q 8 w ) ) Z >                                       ",
"                                            . 3 w e e ) _ u > .                                     ",
"                                            . , q ) e r _ t 6 X                                     ",
"                                              > 0 w w e _ t C #                                     ",
"                                              % * 8 9 9 e e Z #                                     ",
"                                              o # @ * 8 9 w y #                                     ",
"                                              . # > # $ = = = O                                     ",
"                                                . X o o o + o .                                     ",
"                                                                                                    ",
"                                                        .                                           "
};
