/* XPM */
static char *_652302870919[] = {
/* columns rows colors chars-per-pixel */
"50 50 215 2 ",
"   c #000000",
".  c #090705",
"X  c #0B0806",
"o  c #06060B",
"O  c #09070B",
"+  c #0C0B0B",
"@  c #130E05",
"#  c #110D0B",
"$  c #190F0A",
"%  c #1A1106",
"&  c #16110B",
"*  c #1C140C",
"=  c #161006",
"-  c #150E12",
";  c #131313",
":  c #1B1611",
">  c #1C1A16",
",  c #1C1B1B",
"<  c #19171B",
"1  c #24170C",
"2  c #24190C",
"3  c #291C0D",
"4  c #241707",
"5  c #231314",
"6  c #231A12",
"7  c #2B1C14",
"8  c #281713",
"9  c #321C15",
"0  c #301E0A",
"q  c #1F201E",
"w  c #34220D",
"e  c #3A250F",
"r  c #3F290E",
"t  c #2D2112",
"y  c #2F251B",
"u  c #25211C",
"i  c #322515",
"p  c #3A2711",
"a  c #362815",
"s  c #3C2A14",
"d  c #372A1A",
"f  c #3B2C1A",
"g  c #31241B",
"h  c #3F301E",
"j  c #1E1E24",
"k  c #211E2C",
"l  c #242424",
"z  c #2E2424",
"x  c #2C2923",
"c  c #28242B",
"v  c #2C2B2B",
"b  c #242429",
"n  c #3B2E23",
"m  c #342C2B",
"M  c #392F2D",
"N  c #312824",
"B  c #2F302E",
"V  c #3A312D",
"C  c #3A3024",
"Z  c #2D2B34",
"A  c #282535",
"S  c #322C32",
"D  c #312E3B",
"F  c #353335",
"G  c #3C3332",
"H  c #34323D",
"J  c #3B363A",
"K  c #3D3C3C",
"L  c #373834",
"P  c #432D12",
"I  c #452C16",
"U  c #473115",
"Y  c #4C3414",
"T  c #44331D",
"R  c #4B361A",
"E  c #4C391D",
"W  c #4F3817",
"Q  c #543915",
"!  c #533C1B",
"~  c #563A16",
"^  c #462E0E",
"/  c #443522",
"(  c #483721",
")  c #4B3A23",
"_  c #41382E",
"`  c #513E24",
"'  c #423C3D",
"]  c #483E30",
"[  c #5D431C",
"{  c #61461D",
"}  c #66491E",
"|  c #554125",
" . c #5D4524",
".. c #53432B",
"X. c #5B482C",
"o. c #42423E",
"O. c #4D473A",
"+. c #544430",
"@. c #5A4E3B",
"#. c #544A3F",
"$. c #524836",
"%. c #664B22",
"&. c #6A5332",
"*. c #393543",
"=. c #3C3B44",
"-. c #3E3D48",
";. c #363342",
":. c #413E4A",
">. c #433E43",
",. c #4A3F52",
"<. c #3F4246",
"1. c #444344",
"2. c #484647",
"3. c #44444C",
"4. c #4A4B4D",
"5. c #494948",
"6. c #52514E",
"7. c #5A5248",
"8. c #494751",
"9. c #4C4B52",
"0. c #474651",
"q. c #534E53",
"w. c #534C59",
"e. c #4E5153",
"r. c #535355",
"t. c #54535A",
"y. c #59565D",
"u. c #55585A",
"i. c #5B5C5C",
"p. c #5C5954",
"a. c #554C41",
"s. c #665949",
"d. c #695E53",
"f. c #5D625F",
"g. c #6D634A",
"h. c #65645D",
"j. c #6D6458",
"k. c #7C7253",
"l. c #70654A",
"z. c #5C5D61",
"x. c #585761",
"c. c #635F67",
"v. c #5E6263",
"b. c #5C6862",
"n. c #626464",
"m. c #636967",
"M. c #646469",
"N. c #656C69",
"B. c #6A6C6D",
"V. c #6A6867",
"C. c #736E64",
"Z. c #66726B",
"A. c #6A736D",
"S. c #73736C",
"D. c #777466",
"F. c #6D6A72",
"G. c #6D7471",
"H. c #6E7972",
"J. c #727373",
"K. c #727B75",
"L. c #757579",
"P. c #79767C",
"I. c #767D79",
"U. c #7A7C7C",
"Y. c #7D7B73",
"T. c #706C74",
"R. c #827859",
"E. c #857C65",
"W. c #817E73",
"Q. c #738077",
"!. c #768179",
"~. c #7A837D",
"^. c #89826B",
"/. c #968B66",
"(. c #92876C",
"). c #8B8979",
"_. c #9B9272",
"`. c #7D7C81",
"'. c #817E83",
"]. c #7E8681",
"[. c #7F8982",
"{. c #838484",
"}. c #828984",
"|. c #868B89",
" X c #8B8D8D",
".X c #8F8E86",
"XX c #918C85",
"oX c #8C918E",
"OX c #939185",
"+X c #98958C",
"@X c #8F8F92",
"#X c #908F91",
"$X c #8F9291",
"%X c #939494",
"&X c #959996",
"*X c #989799",
"=X c #969998",
"-X c #9B9B9B",
";X c #9B9A95",
":X c #A29C88",
">X c #9FA09F",
",X c #A4A298",
"<X c #A3A08E",
"1X c #9E9EA0",
"2X c #A09FA1",
"3X c #9FA1A1",
"4X c #A3A3A4",
"5X c #AEABA4",
"6X c #ACABAC",
"7X c #A7A7A8",
"8X c #B2B1B2",
"9X c #B9B9B9",
"0X c #AFAFB0",
"qX c #D8D9D9",
"wX c None",
/* pixels */
"wXwXwXwXwXwXwXwXwXwXwXwXwXwXwXwXwXwXwXwXwXwXwXwXwXwXwXwXwXwXwXwXwXwXwXwXwXwXwXwXwXwXwXwXwXwXwXwXwXwX",
"wXwXwXwXwXwXwXwXwXwXwXwXwXwXwXwXM.q.t.#XwXwXwX{.B.i.%X0X6X6X4X#XP.wXwXwXwXwXwXwXwXwXwXwXwXwXwXwXwXwX",
"wXwXwXwXwXwXwXwXwXwXwXwX9X8X6X-XT.r.L.4X4X-X&X XY.V.=X4X-X-X%XU.c.F.-X4X6XwXwXwXwXwXwXwXwXwXwXwXwXwX",
"wXwXwXwXwXwXwXwXwXwX*X6X4X*X%X*X{.d.U.>X%XoX$X|.U.T.-X-X*X*X%XU.i.U.*X-X-X6X-XJ.wXwXwXwXwXwXwXwXwXwX",
"wXwXwXwXwXwXwXwXP.W.%X2XoX}.|.oXI.i.U.*XoX}.[.[.U.J.*X&X*X%X XL.e.H.|.oXoX*X7XP.V.`.wXwXwXwXwXwXwXwX",
"wXwXwXwXwXwXwX6X'.B.U.-XoX!.~.[.K.9.J.}.}.Q.Q.Q.J.J.}.}.}.}.~.h.4.Z.!.oX%X-X%XV.V.@X8XwXwXwXwXwXwXwX",
"wXwXwXwXwXwX6X6X7X%XB.{.oXQ.H.K.B.-.z.B.A.Z.N.V.r.u.G.G.J.H.V.=.=.b.H.}.%X|.c.B.1X6X8X9XwXwXwXwXwXwX",
"wXwXwXwXwX7X>X*X*X>X*XJ.J.N.i.r.1.A ;.0.q.4.1.H Z D 3.3.3.=.D k A <.u.V.J.i.V.&X-X*X-X6X6XwXwXwXwXwX",
"wXwXwXwX&XoX$X X}.}.%X).9.=.Z z , O o O O O o o o o o o o o o o O < Z K <.t.%X*X XoX%X-X=X-XwXwXwXwX",
"wXwXwXwXI.K.}.~.!.K.Z.t.S y g i :                 wXwX            # 6 g N =.V.!.).}.|.}.~.U.wXwXwXwX",
"wXwXwXJ.u.V.K.Q.Q.A.9.Z / d y 7 #                 wXwX            + * y T n D t.H.~.Q.S.n.i. XwXwXwX",
"wXwX0X%Xh.4.u.Z.A.e.V C / d 7 6 #                                 X * t f T T S e.v.f.t.6.B.2XwXwXwX",
"wXwX7X7X-XJ.3.9.6.L ( / T i 6 6 #                                 O & 6 d f / / F 4.4.t.{.4X0X0XwXwX",
"wX6X6X3X1X7X`.1.Z / ) C h i 2 : +                                 X & 6 i f T ) V H t.%X3X3X7X0XwXwX",
"wX6X7X%X$X%X-Xx.z ) ) f f t : * +                                 X & 6 i d T E ) J %X-X|.}.*X0XwXwX",
"wX7X&X|.|.[.{.9.n ) ) f f t * : #                                 O & 2 t d / E / V P.}.~.}.}.-XwXwX",
"wXF.].{.~.[.J.K d ..) d d t : u -                                 + : t i i T T E C u.].[.}.}.L.wXwX",
"wX4.9.i.N.G.n.V C ) E d h d x , .                                 O , y d h T T T / 4.H.J.n.t.1.wXwX",
"wXP.n.0.1.3.3.V E ) E f ..K , o .                                   + v ../ ( T T ) J 4.3.=.=.<.wXwX",
"wX0X3X@XB.4.H m ( ) ..a.1.; X @ .                                 . . # L 7...E ) ) Z *.4.v.P.%XwXwX",
"wX8X7X-X-X@Xy.V ( +.j.o.# + + & +                                 . @ O ; 1.j.X.) ) 1.B.{.=X-X6XwXwX",
"wX0X&X|. X$XL.F +.r.F + & * * * +                                 O * # + + 1.C...E 3.&XoX@X$X>XwXwX",
"wX6X%X}.~.[.H.K o.q + : i a 2 * #                                 X * 2 2 & + o.h.+.5.$X[.].|.=XwXwX",
"wX7X|.!.Q.~.G.Z # + 3 f ) f : * X                                 . & : s i > + Z p.w.|.~.~.!.$XwXwX",
"wX=X~.~.!.Q.A.j + t  .| ) i * * X                                 X = * f T s * + q 0.|.Q.Q.!.[.wXwX",
"wXoX~.!.!.!.G.c 3 | &.| E t * & X                                 . & * i T | E : O =.|.!.Q.!.}.wXwX",
"wX].~.I.I.K.B.F h | &.| T t * = X                                 X @ * t s | X.i * =.K.K.K.I.U.wXwX",
"wXi.z.v.v.f.r.M T |  .| U 3 & @ X                                 . @ * t s ) | T T ' n.n.n.z.t.wXwX",
"wX:.8.9.q.r.4.G T E  .E s 3 & @ X                                 . @ % 3 s E | / ) =.q.r.9.8.*.wXwX",
"wX*X%X@X%X%XU.' T E [ Y p 4 @ * &                                 X X = 3 s E ! T ) q.@X=X%X%X#XwXwX",
"wX6X%X}.[.|.U._ s Y [ U w 4 6 , O                                 O * = 3 i U E T T r.=XoX|.@X-XwXwX",
"wX4X X[.~.!.L.M a ^ Y s w C l O                                     ; > 4 w P E s I r.oX~.~.[.%XwXwX",
"wX4X}.~.!.Q.H.S e U Y U O.b . . .                                   . , N w ^ Y s s r.oXQ.~.!.|.wXwX",
"wX-X~.Q.K.K.H.m 0 ^ X.7.b . X X +                                 . X O v _ P U s s 5.}.H.K.Q.[.wXwX",
"wXP.K.K.K.K.N.N 0 ..p., . = % % X                                 X = + # J @.^ e s 2.K.K.K.H.K.wXwX",
"wXq.t.t.i.f.e.z _ 2.> . 4 3 * * X   wX                            X * * % ; 6.d.p e J i.u.t.3.-.wXwX",
"wX8.w.y.t.t.4.Z l O @ i ^ a 4 = X wXwX                            X % 1 w 3 > i.s.w v r.t.t.r.:.wXwX",
"wX1X&X&X%X%XU.k . 4 Q W W s 4 % . wXwXwX                          X % 1 s P t , q.#.3.#X*X%X*X*XwXwX",
"wX7X|.[.{.}.~.c % ~ %.~ Q s 4 # .   wX                            . $ 3 P R Q d < 1.z.=X|.}.|.%XwXwX",
"wX XG.G.H.A.F.V s } %.~ Y p * O .                                   # 1 r Y  .~ i ; 8.}.G.A.A.K.wXwX",
"wX`.Z.N.Z.N.n.M U } %.Q I 8 O O + wXwXwX                          . O - e Y { } Q 2 =.U.N.b.m.F.wXwX",
"wXL.N.b.N.G.B.M U { ~ I 8 O # X wXwXwXwX                            O + 5 P ~ ~  .P >.U.N.b.b.B.wXwX",
"wXx.x.v.z.z.c.V ^ Q I 5 + ; O     wXwXwX                              + # 8 Q ~ [ U 2.N.b.b.z.x.wXwX",
"wX*.=.-.<.=.=.N r I 5 # ; + .     .                                 . . - # 9 I Q P S :.=.*.;.A wXwX",
"wX*.,.0.9.8.:.k 8 : # > - + + + X . .   . .         .   .   . O . X + # ; > # 7 P r Z 3.0.0.-.;.wXwX",
"wX%X$X@X X X'.c # ; B L v v v v > * , , ; ; ; ; + & ; ; > > q q : u B L L K v - 9 w >.$X@X@X@X@XwXwX",
"wX X`.L.P.P.B.k < O.A.V.h.h.b.i.L o.6.5.5.5.1.o.x y 1.1.o.5.6.7.G O.N.V.S.I.G.F # 1 =.P.L.L.J.`.wXwX",
"wXT.M.z.M.M.z.D O.^.+XOXOX+X).^.&.k.).(.!.H.K.D.@.@.C.A.D.Y.W.W.g.l._.:X,X=X-X).m # *.x.t.w.w.w.wXwX",
"wXx.9.0.0.9.-.H wX<X6X,X,X5X5X:Xd.s.R.R.E.R.R.R.@.l.OXOXXXXX+X+XE.s.k./.(././._.g.u Z 3.:.-.;.=.wXwX",
"wXwXwXwXwXwXwXwXwXwXwXwXwXwXqX8Xc.q.wXwXwXwXwXwXwXwXwXwXwXwXwXwXwXwXwXwXwXwXwXwXwXwXwXwXwXwXwXwXwXwX"
};
