/* XPM */
static char *d925b182d3614b8e933c06fe48420194pXeGpudYIEOi5xbd[] = {
/* columns rows colors chars-per-pixel */
"50 50 208 2 ",
"   c #000000",
".  c #090607",
"X  c #070509",
"o  c #09060A",
"O  c #0C090C",
"+  c #110C0E",
"@  c #1D0B0B",
"#  c #0F0B11",
"$  c #130D11",
"%  c #161014",
"&  c #1B1315",
"*  c #1C151B",
"=  c #1B1818",
"-  c #340C0B",
";  c #211315",
":  c #21161C",
">  c #241A1C",
",  c #291D1D",
"<  c #2E211A",
"1  c #30231F",
"2  c #221A21",
"3  c #291C24",
"4  c #2B2329",
"5  c #392A23",
"6  c #35242B",
"7  c #2F2B33",
"8  c #382B33",
"9  c #37343D",
"0  c #4D0D0D",
"q  c #5B0503",
"w  c #551412",
"e  c #6C0202",
"r  c #690506",
"t  c #770305",
"y  c #7B0203",
"u  c #761015",
"i  c #54341A",
"p  c #491C22",
"a  c #531E23",
"s  c #601E24",
"d  c #412F26",
"f  c #47342A",
"g  c #412B33",
"h  c #562932",
"j  c #493534",
"k  c #543A34",
"l  c #613F29",
"z  c #5F4219",
"x  c #6B4D1A",
"c  c #794D12",
"v  c #7C5918",
"b  c #5B432A",
"n  c #494338",
"m  c #674927",
"M  c #754E2F",
"N  c #6D522A",
"B  c #7C5827",
"V  c #644836",
"C  c #6D5135",
"Z  c #795436",
"A  c #3C3440",
"S  c #443A47",
"D  c #533D44",
"F  c #304951",
"G  c #3B555A",
"H  c #315C66",
"J  c #3C666F",
"K  c #4A4954",
"L  c #504E50",
"P  c #594956",
"I  c #46585C",
"U  c #624A49",
"Y  c #6A554D",
"T  c #684F52",
"R  c #685657",
"E  c #58605B",
"W  c #75624F",
"Q  c #7C6552",
"!  c #515A65",
"~  c #4D6365",
"^  c #4D6A6E",
"/  c #566B74",
"(  c #636B64",
")  c #65687B",
"_  c #830000",
"`  c #8B0607",
"'  c #910101",
"]  c #891017",
"[  c #92590B",
"{  c #835417",
"}  c #88621A",
"|  c #97691A",
" . c #9F7417",
".. c #A9680C",
"X. c #B26E0C",
"o. c #B6740D",
"O. c #BB730C",
"+. c #A4771A",
"@. c #B57E14",
"#. c #865A25",
"$. c #8B5E32",
"%. c #895C3A",
"&. c #8B6424",
"*. c #986F24",
"=. c #99663B",
"-. c #AE7A24",
";. c #C2770A",
":. c #C57A0D",
">. c #CC7D0B",
",. c #865B42",
"<. c #886448",
"1. c #976942",
"2. c #9D6A44",
"3. c #8C6B56",
"4. c #9D7351",
"5. c #A36C44",
"6. c #A77049",
"7. c #AB724A",
"8. c #B4774B",
"9. c #B6794D",
"0. c #AA7B56",
"q. c #A57B5B",
"w. c #B57C52",
"e. c #BD7E52",
"r. c #886F69",
"t. c #997762",
"y. c #AE7F66",
"u. c #B67C73",
"i. c #7D857C",
"p. c #BB8819",
"a. c #B38620",
"s. c #C4830F",
"d. c #D5830B",
"f. c #DA860C",
"g. c #D7880D",
"h. c #DE890C",
"j. c #C78C19",
"k. c #CA941A",
"l. c #D99C1A",
"z. c #E38C0C",
"x. c #E5920D",
"c. c #E59511",
"v. c #E99711",
"b. c #E59B13",
"n. c #E99B11",
"m. c #DDA31C",
"M. c #EBA215",
"N. c #ECAA17",
"B. c #E7A819",
"V. c #EFB01A",
"C. c #F2B21A",
"Z. c #C38D27",
"A. c #DDA127",
"S. c #ECAA24",
"D. c #AC815E",
"F. c #B98257",
"G. c #9C8575",
"H. c #AA866A",
"J. c #B78965",
"K. c #A88972",
"L. c #B88D72",
"P. c #C2884A",
"I. c #C48354",
"U. c #CA8655",
"Y. c #CE8856",
"T. c #C5885B",
"R. c #D08A56",
"E. c #D28C59",
"W. c #CF8F69",
"Q. c #D39565",
"!. c #C79871",
"~. c #4F7B84",
"^. c #607A83",
"/. c #57828B",
"(. c #5A8894",
"). c #568E9B",
"_. c #64848B",
"`. c #7F8980",
"'. c #5D9AA7",
"]. c #679CA8",
"[. c #7395A7",
"{. c #68A9B7",
"}. c #70BACA",
"|. c #79C6D8",
" X c #7DCFE2",
".X c #7ED4E7",
"XX c #959493",
"oX c #A89D94",
"OX c #B6ADA6",
"+X c #BDB8B3",
"@X c #DA968C",
"#X c #C2C0BD",
"$X c #80B3C0",
"%X c #85C4D4",
"&X c #98C3D9",
"*X c #89D6E7",
"=X c #84D9ED",
"-X c #94D3E5",
";X c #87DCF1",
":X c #8BE2F6",
">X c #91E1F5",
",X c #CCCCCB",
"<X c #DDDCDA",
"1X c #DEE5E8",
"2X c #E4E5E6",
"3X c #EFF1F2",
"4X c #F6FAFB",
"5X c #FDFEFE",
/* pixels */
"                                                        X . o o O O o o X                           ",
"                                              X X + & < 5 f b b b m b n d < # X                     ",
"                                          o % 1 k C &.+.p.k.l.A.m.m.A.l.k. .N f % X                 ",
"                                      o = f N | j.l.l.b.n.b.c.b.n.n.M.M.N.N.m.+.f O                 ",
"                                  O 2 k B p.l.x.x.x.x.z.z.z.z.z.z.z.z.z.c.M.V.S.m O                 ",
"                              . & j &.p.l.x.x.z.z.z.z.z.z.z.h.d.:.>.z.z.z.z.S.E.b .                 ",
"                            . 4 N a.l.n.x.z.z.z.z.z.z.z.z.g.O...O.g.z.z.z.z.j.M =                   ",
"                          X 5 } m.B.n.z.h.z.z.z.z.z.z.z.h.....>.z.z.z.z.z.:.N , X                   ",
"                          + x m.C.n.z.z.z.z.z.z.z.z.z.z.f.....>.f.d.d.>.O.{ j O                     ",
"                          + x m.N.x.z.z.z.z.z.z.z.z.z.z.z.d.O...X.X.X.o.@.-.U #                     ",
"                      X O = b +.s.:.:.:.>.d.z.z.z.z.z.z.h.h.h.f.d.d.>.O.k.k.m $                     ",
"                  O : j V $.*.@.s.:.O.O.O.>.h.z.z.z.z.f.O.X...X.;.O.[ { &.| m > X                   ",
"              . : U <.P.A.B.b.x.h.z.z.h.z.h.z.z.z.z.z.z.g.o.c x $.=.=.7.w.J.3.U +                   ",
"              + b F.S.S.N.c.x.z.z.z.z.z.z.z.z.z.z.x.x.n.j.| $.8.U.I.7.6.w.Q.!.3.8 o                 ",
"              , *.S.V.B.c.z.z.h.z.z.z.z.z.z.h.d.d.c.M.p.&.5.I.E.R.6.=.7.9.I.Q.!.U +                 ",
"              4 -.S.V.M.x.z.z.z.z.z.z.g.>.:.O.[ O.M.k.#.5.Y.E.E.I.1.6.q.H.G.D.!.Y %   .             ",
"              = v B.V.b.z.z.z.z.z.z.O.&.$.1.%.i o.m.| 1.U.E.E.E.U.9.t.+X2X<XOXH.Y *                 ",
"              O b k.N.b.z.z.z.z.x.>.B 1.q.y.J.Z +.s.B e.E.E.E.E.U.w.OX3X5X5X<XXXT *                 ",
"              . < } B.M.z.z.z.z.z.O.m e.I.7.2.%.[  .&.I.E.Y.E.E.U.q.,X4X5X2XoXr.T *                 ",
"                O 5 +.B.x.z.z.z.z.;.m w.E.6.%.2.B v $.I.E.E.E.E.U.q.#X4X5X2XXXQ Y >                 ",
"                  % f +.b.b.z.z.z.d.{ $.e.8.=.8.=.z m e.E.E.E.E.E.w.oX1X4X3XOXK.<.7 X               ",
"                    + 5 } k.M.c.x.z.;.c l 1.5.8.9.%.m 7.E.E.E.E.E.U.y.OX,X+XK.W.y.R 3 .             ",
"                      . > m a.m.M.v.>.{ #.1.,.,.5.9.F.U.E.E.E.E.E.E.T.0.K.L.T.Y.T.r.P $             ",
"                          $ 5 #.Z.@.#.%.8.U.U.U.U.E.E.E.Y.E.E.U.U.E.E.Y.W.@Xu.,.,.3.D %             ",
"                            X & d f g k Z 7.I.I.Y.Y.Y.E.E.E.U.8.5.2.6.y.u.r.U 6 , > $ X             ",
"                                  X o O & f U 3.Q %.=.F.I.I.F.7.,.b j U D 2 O X                     ",
"                                          * I )./ G j C ,.Z V k 6 & $ $ o .                         ",
"                                    .   . 7 ^ _.].{./.I I E F 8 o                                   ",
"                                        % 9 ~ {.;X.X.X{.^ '.].K $                                   ",
"                                      X = 9 ~.|..X X.X|.~.'.*X^.4                                   ",
"                                      O S I H ^ `.`.i.).J /.*X$XP $                                 ",
"                                      % ! [.J n w.w.F F H '.=X-X/ 2                                 ",
"                                  .   6 ^.-X{.U T.F.L '.}..X;X=X[.S o .                             ",
"                                    o K $X>X}.R F.F.E |.:X;X=X;X%XE +                               ",
"                                    O ! &X>X|.E D.T.W '..X=X=X;X-X) %                               ",
"                                    O K &X>X.X'.W T.4.( _.{..X;X&X) *                               ",
"                                    X 7 / ].{.{.E 4.Q.J.<.I (.[.) A O                               ",
"                                      o 3 6 k D 8 b F.Q.4.5 4 9 * o                                 ",
"                                        o ; p e r w Z 1.=.b 4 $                                     ",
"                                        . X 3 s ` r w i b d >                                       ",
"                                            2 s ` _ e q w 6 o                                       ",
"                                          X 3 w ' y y y w :                                         ",
"                                          o g u ' y t y a %                                         ",
"                                          # h ] _ e q r p % . X                                     ",
"                                          $ a y e q 0 - ; 2 * * $ X                                 ",
"                                          $ - 0 0 - @ . $ * $ * 3 O                                 ",
"                                          # > < : & % $ o . $ 2 > X                                 ",
"                                            . o . X . .       o X                                   ",
"                                                  X                                                 ",
"                                                                                                    "
};
