/* XPM */
static char *a8186ba97ce54f0eb50f4c8fa8b00181Wu57rOYfTMOtNnyh[] = {
/* columns rows colors chars-per-pixel */
"50 50 165 2 ",
"   c #000000",
".  c #0B0B0A",
"X  c #100F0C",
"o  c #14130D",
"O  c #141313",
"+  c #181817",
"@  c #1E1E1C",
"#  c #27261E",
"$  c #242423",
"%  c #2A2925",
"&  c #2C2C2A",
"*  c #352F25",
"=  c #3D3522",
"-  c #34332A",
";  c #393729",
":  c #3A3937",
">  c #413D31",
",  c #45443B",
"<  c #4B463B",
"1  c #735A27",
"2  c #6D5A38",
"3  c #4C4B42",
"4  c #695B43",
"5  c #625B49",
"6  c #66614D",
"7  c #706944",
"8  c #73684E",
"9  c #74684C",
"0  c #626051",
"q  c #616058",
"w  c #787358",
"e  c #797566",
"r  c #7D7968",
"t  c #8B6814",
"y  c #A37202",
"u  c #A97303",
"i  c #AD740B",
"p  c #AE7A0B",
"a  c #B47C06",
"s  c #B37C0C",
"d  c #BC7F0F",
"f  c #B27C14",
"g  c #B87E11",
"h  c #B37C1B",
"j  c #8E6B24",
"k  c #8F7735",
"l  c #9E7B3D",
"z  c #8A7246",
"x  c #967B44",
"c  c #8C7750",
"v  c #B2810D",
"b  c #B48411",
"n  c #BE8313",
"m  c #B9831F",
"M  c #BB8A1C",
"N  c #BE941E",
"B  c #B88320",
"V  c #B1842B",
"C  c #B08536",
"Z  c #B88D3D",
"A  c #C18514",
"S  c #C28419",
"D  c #C4891B",
"F  c #C88B1E",
"G  c #C9921D",
"H  c #C68D20",
"J  c #CC8D23",
"K  c #C88F2A",
"L  c #CC9225",
"P  c #C89C27",
"I  c #CD932D",
"U  c #C89C29",
"Y  c #D49324",
"T  c #D39E27",
"R  c #DA9A24",
"E  c #D9952A",
"W  c #D99928",
"Q  c #D09732",
"!  c #CDA42A",
"~  c #D1A126",
"^  c #D3A22B",
"/  c #D9B72F",
"(  c #D4A532",
")  c #D6AD34",
"_  c #DBAA37",
"`  c #DCAA34",
"'  c #DCB435",
"]  c #DDBC35",
"[  c #DBB43B",
"{  c #DEBD3B",
"}  c #E1BE35",
"|  c #E0BD3C",
" . c #DFC13E",
".. c #E2C43E",
"X. c #A68143",
"o. c #B08847",
"O. c #BFAC4C",
"+. c #BFAB53",
"@. c #86836E",
"#. c #88826F",
"$. c #898472",
"%. c #8B8972",
"&. c #AC9E60",
"*. c #A7A27F",
"=. c #C2AC4A",
"-. c #DEBD42",
";. c #C2AE57",
":. c #C2AE5B",
">. c #C4B15E",
",. c #E1BD41",
"<. c #C3B263",
"1. c #CBBE71",
"2. c #DFC544",
"3. c #DEC34B",
"4. c #DFC354",
"5. c #E2C343",
"6. c #E5CB44",
"7. c #E9CE44",
"8. c #E2C44B",
"9. c #E5CC4B",
"0. c #EBCD4C",
"q. c #E6D044",
"w. c #E7D24C",
"e. c #EAD24D",
"r. c #E3C653",
"t. c #E5CC53",
"y. c #E3C75C",
"u. c #E5CB5A",
"i. c #E6D153",
"p. c #EAD453",
"a. c #ECDA54",
"s. c #E7D15D",
"d. c #EAD45B",
"f. c #EDDA5B",
"g. c #F0DD5B",
"h. c #DCC570",
"j. c #D8CA73",
"k. c #E4CA62",
"l. c #E8CF61",
"z. c #E3CB6A",
"x. c #EAD563",
"c. c #EDDB64",
"v. c #E6D26B",
"b. c #E9D76B",
"n. c #EDDC6A",
"m. c #F0DE63",
"M. c #F0DF6C",
"N. c #E4CF72",
"B. c #E5D275",
"V. c #ECDC73",
"C. c #E3D07B",
"Z. c #E9D778",
"A. c #E7D879",
"S. c #ECDC7C",
"D. c #EEE174",
"F. c #F0E171",
"G. c #F0E378",
"H. c #B2AD83",
"J. c #BAB486",
"K. c #BDB78B",
"L. c #CEBC81",
"P. c #C7C28D",
"I. c #C9C38C",
"U. c #EADA81",
"Y. c #ECE185",
/* pixels */
"                                                                                                    ",
"                                                                                                    ",
"                                                                                                    ",
"                                                                                                    ",
"                                                                                                    ",
"                                                                                                    ",
"                                    k =.=.O.+.;.;.:.>.<.o                                           ",
"                                    ) 7.q.w.w.i.p.d.x.x.U.,                                         ",
"                                  1 M / } ]  .| ..,.3.3.u.*.:                                       ",
"                                  y u N ' } ] ] | ,.2.3.8.z.w X                                     ",
"                                t u u b ] 2.....8.8.9.4.r.l.7 &                                     ",
"                                y u u v ) 6.6.6.9.9.9.i.s.x.&.+                                     ",
"                                u u i a ) 9.9.w.w.i.p.d.x.b.1.+                                     ",
"                              . u i u p ` e.e.p.p.p.a.x.c.b.Z.%                                     ",
"                              = p h p p ( e.a.a.f.f.f.m.n.n.G.; .                                   ",
"                              2 f B f f ( p.e.p.f.d.c.n.n.Z.j.-                                     ",
"                              z b B M U ..7.0.9.t.i.d.d.d.j.6 o                                     ",
"                              z f h ( 5...6.6.9.9.i.s.d.Z.@..                                       ",
"                              z s f ! ....| { ..8.8.r.y.B.e                                         ",
"                              z p f ! / ] ] ] ..2.2.8.r.N.#.                                        ",
"                              z a d P 6.6.q.q.w.e.e.d.d.b.K.$                                       ",
"                              9 a g n ! ......5.8.0.r.u.t.C.$.                                      ",
"                              5 f d n G ` ] ] ] { ,.-.3.3.k.L.%                                     ",
"                              , h n n n ~ / / ' [ [ -.-.3.4.h.q                                     ",
"                              + l S A A T | ] ] | ,.,.8.r.r.z.%.                                    ",
"                                5 m A S P ..5.6.5.9.9.t.u.u.z.H..                                   ",
"                                O x D D ^ 6.7.6.0.w.e.i.d.x.v.J..                                   ",
"                                  9 D F T 0.e.e.p.p.d.d.x.n.V.K.O                                   ",
"                                  8 H F ^ 0.a.a.a.f.f.f.c.n.D.P.+                                   ",
"                                @ c I H ^ 0.a.a.a.f.f.c.M.D.D.I.+                                   ",
"                            . 5 o.K I H ^ e.a.a.f.g.m.m.M.F.D.P.+                                   ",
"                            % j Y J L H ^ a.a.a.a.m.m.m.M.D.G.P.O                                   ",
"                            & V L F L J _ 0.a.a.f.g.m.m.F.F.D.K.X                                   ",
"                            $ C J D D Y ` p.a.a.a.f.f.m.c.D.D.H..                                   ",
"                            + X.J D J E ` 0.w.e.a.a.f.f.c.n.B.H..                                   ",
"                            . z Y L Y E ` 0.w.w.i.i.d.d.x.x.Z.%.                                    ",
"                              4 G R E W [ 6.6.6.6.w.i.i.l.x.A.3                                     ",
"                              < L Y W W '  .6.5.2.3.9.r.u.l.C.O                                     ",
"                              % Z E R T '  . . .6.2.8.8.4.k.=                                       ",
"                                * Q R ^ ' ] ] ] ] { -.5.3.j..                                       ",
"                                  = _ 5.6.6.6.0.0.e.t.s.B.-                                         ",
"                                    ,.e.e.e.p.p.d.d.m.n.Y.@                                         ",
"                                    [ 6.6.6.6.9.t.t.s.x.S.3                                         ",
"                                    ( }  .] ....5.8.r.u.B.r                                         ",
"                                      . o X X # > 3 5 6 0 :                                         ",
"                                                                                                    ",
"                                                                                                    ",
"                                                                                                    ",
"                                                                                                    ",
"                                                                                                    "
};
