/* XPM */
static char *_d157b9a884845278438499ce1ac1ea9mcUDyxJZMke4aw9F[] = {
/* columns rows colors chars-per-pixel */
"50 50 195 2 ",
"   c #000000",
".  c #080807",
"X  c #0B0B0A",
"o  c #140E04",
"O  c #10100B",
"+  c #131312",
"@  c #181717",
"#  c #191817",
"$  c #1C1C1B",
"%  c #221B0B",
"&  c #201F11",
"*  c #36280D",
"=  c #292617",
"-  c #24231C",
";  c #282618",
":  c #3A2B10",
">  c #3E3617",
",  c #232322",
"<  c #282724",
"1  c #282826",
"2  c #2C2C2A",
"3  c #302F2D",
"4  c #37362F",
"5  c #363534",
"6  c #393734",
"7  c #3D3A35",
"8  c #3E3D3A",
"9  c #463E2D",
"0  c #433E35",
"q  c #634913",
"w  c #49492E",
"e  c #544F2F",
"r  c #5A532F",
"t  c #44413A",
"y  c #4A453D",
"u  c #4E493C",
"i  c #666136",
"p  c #757137",
"a  c #7B7436",
"s  c #7B733B",
"d  c #4F4F47",
"f  c #5B5644",
"g  c #55544D",
"h  c #5D5B4B",
"j  c #665C46",
"k  c #645C4B",
"l  c #75664C",
"z  c #73694D",
"x  c #7A6D4F",
"c  c #787349",
"v  c #676351",
"b  c #6E6F5F",
"n  c #7E7252",
"m  c #7D7F5B",
"M  c #767766",
"N  c #89661C",
"B  c #91681E",
"V  c #A8791D",
"C  c #B37D1E",
"Z  c #8F6F24",
"A  c #816D4E",
"S  c #877C43",
"D  c #84724C",
"F  c #8D724E",
"G  c #947546",
"H  c #967B4B",
"J  c #BC841D",
"K  c #AC882E",
"L  c #B58428",
"P  c #AE843C",
"I  c #C48C1F",
"U  c #C39222",
"Y  c #C7982B",
"T  c #CDA222",
"R  c #D7A82C",
"E  c #D4AC2C",
"W  c #DCB42E",
"Q  c #DCBA2E",
"!  c #CAA738",
"~  c #DEAC31",
"^  c #D1A83C",
"/  c #DEBC32",
"(  c #DBB93F",
")  c #E1BE33",
"_  c #E4B438",
"`  c #E3BC3D",
"'  c #EBBC3C",
"]  c #E3C235",
"[  c #E5C53A",
"{  c #E9C43C",
"}  c #E9CB3C",
"|  c #EDD43F",
" . c #898248",
".. c #9C8949",
"X. c #979149",
"o. c #86855C",
"O. c #948152",
"+. c #988C58",
"@. c #A78441",
"#. c #AC8D45",
"$. c #B08840",
"%. c #AA9449",
"&. c #B89F4A",
"*. c #A58D53",
"=. c #AF8F50",
"-. c #A09559",
";. c #B39A50",
":. c #B4A04F",
">. c #ACA458",
",. c #BDB05A",
"<. c #8A8561",
"1. c #99946E",
"2. c #98997E",
"3. c #BAAF6E",
"4. c #ABA875",
"5. c #BBB67B",
"6. c #CBA340",
"7. c #CBB64E",
"8. c #C7B84E",
"9. c #D1B542",
"0. c #DDB945",
"q. c #C4B758",
"w. c #CEBB5D",
"e. c #CFB762",
"r. c #C7B961",
"t. c #CFB769",
"y. c #E6C643",
"u. c #ECCD42",
"i. c #E8CC45",
"p. c #F0C747",
"a. c #F5CC47",
"s. c #EDD242",
"d. c #E9D84B",
"f. c #F2D446",
"g. c #F3DA43",
"h. c #F1D449",
"j. c #FAD34A",
"k. c #F4DB4A",
"l. c #F9DC4C",
"z. c #EDD656",
"x. c #F5D751",
"c. c #FFDF53",
"v. c #F1D95D",
"b. c #F6E14A",
"n. c #FAE34F",
"m. c #F5E250",
"M. c #FBE452",
"N. c #FEEA55",
"B. c #FDE559",
"V. c #FDEC5B",
"C. c #D5CC6C",
"Z. c #D9D46F",
"A. c #CFCA7F",
"S. c #D8D17D",
"D. c #E3CD60",
"F. c #EBD568",
"G. c #E3DA76",
"H. c #E5DF78",
"J. c #EAE26E",
"K. c #FBEE63",
"L. c #F3E769",
"P. c #FBEE6A",
"I. c #FBF065",
"U. c #F6F46D",
"Y. c #FAF16C",
"T. c #EBE371",
"R. c #F5EE76",
"E. c #F7F476",
"W. c #F9F273",
"Q. c #F6F57C",
"!. c #F9F47C",
"~. c #F4F97E",
"^. c #A2A086",
"/. c #D2CC82",
"(. c #D9DF8A",
"). c #DDDC95",
"_. c #D9DE9E",
"`. c #DFE49B",
"'. c #E7EB86",
"]. c #EEF384",
"[. c #EFF688",
"{. c #F5F682",
"}. c #F4F884",
"|. c #F4F78C",
" X c #F9F58A",
".X c #F4FA8C",
"XX c #E7E798",
"oX c #ECEE9B",
"OX c #EFFC9C",
"+X c #F3FB92",
"@X c #F1FC93",
"#X c #F1FC96",
"$X c #F1F59B",
"%X c #F0FD99",
"&X c #DADFA4",
/* pixels */
"                                                                                                    ",
"                                                                                                    ",
"                                                                                                    ",
"                                                                                                    ",
"                                                                                                    ",
"                                                                                                    ",
"                                            X 2 8 8 2 X                                             ",
"                                            7 #.F.J./.1                                             ",
"                                        O $ v ^ c.N.H.&   O                                         ",
"                                  @ h 1.5.A.G.L.V.V.P.G.3.x +   $ X                                 ",
"                              y +.Z.{.!.E.Y.I.I.K.V.V.V.B.V.P.P. .O - .                             ",
"                          # x e.].}.!.!.E.W.W.I.P.P.V.V.V.N.V.N.M.K.e X X                           ",
"                        + D C.#X@X|.|.}.~.!.E.W.W.P.P.K.V.V.V.V.V.N.V.>.  .                         ",
"                        j 7.+X%X@X@X.X.X.X}.!.!.W.P.P.P.I.I.I.V.V.N.N.V.X..                         ",
"                      < $.T..X.X@X#XOXOX+X'.4.,.R.E.R.r.v.I.I.P.V.V.V.N.L.;                         ",
"                      k ^ E.!.{.}..X@XOX$XM O +.Q.~.).g %.v.Y.I.I.I.K.V.N. ..                       ",
"                      A ( U.W.E.~.{.}.+X`.1 # %.}..X_.$ k 9.P.L.q.X.i ; X                           ",
"                      F ' I.P.P.W.Q.~.}.XX5 < &.[.@X&X, # h v <                                     ",
"                      F _ V.V.P.I.Y.W.W. X^.t :.[.OX&X,                                             ",
"                      l ~ B.V.V.P.P.I.P.E.{.S.Z.{..X&X,                                             ",
"                      d Y x.N.N.V.V.K.P.P.U.W.!.!.}.oX2.g 1 X                                       ",
"                      + G _ c.N.N.V.V.V.V.I.Y.Y.W.E.~.+X$X&X2.g 3 X                                 ",
"                        0 P ' n.M.N.N.B.V.V.I.I.P.P.W.E.{.}..X$Xm h g X                             ",
"                          t @.' l.M.N.N.N.V.V.V.I.P.Y.Y.W.E.~.}..X%Xo.b 5                           ",
"                            2 D 6.p.j.M.B.N.N.V.V.V.I.I.Y.U.E.!.Q.}.}.(.4 O                         ",
"                                O l =.0.a.l.n.N.N.V.V.V.V.I.I.Y.W.Q.{.}.'.                          ",
"                                        9 j ..{ M.N.N.V.V.V.I.I.Y.W.E.Q.}.w                         ",
"                                              o j.n.M.9.x.N.V.V.V.U.U.U.E.Q.                        ",
"                                              o f.b.>.      M.N.V.V.I.K.P.U.O                       ",
"                                              * u.b.#       K M.N.V.V.V.P.K.p                       ",
"                  X 0 u f h z c -.r.w...      q p.k.=       : j.N.N.N.V.V.V.p                       ",
"                  + H ! ! ! [ [ [ [ } s.u     N p.g.r       : a.n.M.M.N.N.N.a                       ",
"                    x J Q [ ) ] ] ] [ i.t.    B { s.s       Z l.b.M.n.M.B.N.a                       ",
"                    7 L R ) ) ) ] ] ] [ u.-.9 L ' u.S     % h.k.k.k.l.m.b.B.c                       ",
"                    X A I W / / ] ] ] ] ] [ y.) [ s.D.= > y.s.s.k.k.k.b.c.8.h                       ",
"                      , G U W / Q ] / ] ] ] [ } [ [ u.s.s.s.s.s.s.h.h.k.d.<..                       ",
"                        1 G U E / / / ) ) ] ] ] ] } [ } } } | | s.s.f.z.o.+                         ",
"                          $ l K T E / / ) ) ) ] ] ] [ ] [ } u.i.u.s.q.k .                           ",
"                            . 3 x P Y E W W ) ] ) ] ] ] [ [ [ ` ,.n ,                               ",
"                                  + 6 f n O.#.Y W ) ( ;.*.O.z t @                                   ",
"                                            t V R / e.3 .                                           ",
"                                            y C E Q e.<                                             ",
"                                            d L E Q e.1                                             ",
"                                            6 G ....+.$                                             ",
"                                                                                                    ",
"                                                                                                    ",
"                                                                                                    ",
"                                                                                                    ",
"                                                                                                    ",
"                                                                                                    "
};
