/* XPM */
static char *d59f4f0c8a124d7dfc16a28797954b89xmv7yLQHefrMQJZn[] = {
/* columns rows colors chars-per-pixel */
"50 50 198 2 ",
"   c #000000",
".  c #0A0907",
"X  c #0A0A0A",
"o  c #100E0A",
"O  c #1C160B",
"+  c #141313",
"@  c #1A1A19",
"#  c #23221E",
"$  c #2F2D27",
"%  c #2D2C2A",
"&  c #312E29",
"*  c #31312F",
"=  c #353431",
"-  c #3E3D36",
";  c #423D28",
":  c #58421A",
">  c #664B18",
",  c #484439",
"<  c #554C39",
"1  c #7E5E2C",
"2  c #675838",
"3  c #715D38",
"4  c #4E4C43",
"5  c #4E4D48",
"6  c #514F45",
"7  c #545249",
"8  c #625745",
"9  c #635846",
"0  c #635F4B",
"q  c #6F6045",
"w  c #69654D",
"e  c #786846",
"r  c #686654",
"t  c #69675E",
"y  c #7B7558",
"u  c #686860",
"i  c #875A05",
"p  c #875E06",
"a  c #905F00",
"s  c #8E6002",
"d  c #956302",
"f  c #9A6601",
"g  c #976A01",
"h  c #9D6A00",
"j  c #9C6F0A",
"k  c #8C6416",
"l  c #A26D00",
"z  c #A67102",
"x  c #AB7402",
"c  c #AB7A06",
"v  c #A7740C",
"b  c #AD7B0C",
"n  c #B27702",
"m  c #B57B02",
"M  c #B97D02",
"N  c #B47D0C",
"B  c #A06E10",
"V  c #A2751F",
"C  c #9A7225",
"Z  c #8C743C",
"A  c #A37825",
"S  c #816E44",
"D  c #857548",
"F  c #917C4B",
"G  c #B58106",
"H  c #BC8204",
"J  c #BE8A06",
"K  c #BA840A",
"L  c #BE8B0B",
"P  c #B78A16",
"I  c #B58C1B",
"U  c #BF901C",
"Y  c #BA8E23",
"T  c #B39031",
"R  c #C18606",
"E  c #C38A06",
"W  c #C1860B",
"Q  c #C38C0C",
"!  c #C5930D",
"~  c #CA950E",
"^  c #C9980E",
"/  c #C68F10",
"(  c #C59313",
")  c #C99611",
"_  c #CC9B14",
"`  c #CB9C1C",
"'  c #CFA017",
"]  c #CFA21A",
"[  c #D2A315",
"{  c #D2A41A",
"}  c #D5A91D",
"|  c #DAA91C",
" . c #C39C26",
".. c #CB9C24",
"X. c #CDA223",
"o. c #C4A12D",
"O. c #CEA32B",
"+. c #D2A522",
"@. c #D5AA25",
"#. c #DBAD23",
"$. c #D4AB2B",
"%. c #DAAE2A",
"&. c #DDB423",
"*. c #DCB22B",
"=. c #CCA934",
"-. c #D4B337",
";. c #DBB434",
":. c #DCBA36",
">. c #DBB43B",
",. c #DDBB3B",
"<. c #E0B427",
"1. c #E2BA26",
"2. c #E4BC2B",
"3. c #E0B534",
"4. c #E4BD32",
"5. c #E0BE3D",
"6. c #DFC13B",
"7. c #E9C42D",
"8. c #E8C62D",
"9. c #E9C636",
"0. c #EDCC33",
"q. c #E3C23D",
"w. c #F0CE38",
"e. c #F2D236",
"r. c #F3D43B",
"t. c #F6D83B",
"y. c #F9DC3D",
"u. c #908346",
"i. c #8C845E",
"p. c #9A8B53",
"a. c #BA9E47",
"s. c #A78E54",
"d. c #A29357",
"f. c #BFA74E",
"g. c #968D65",
"h. c #898776",
"j. c #948E7B",
"k. c #A49767",
"l. c #B5A866",
"z. c #ABA073",
"x. c #B4A770",
"c. c #BCB17B",
"v. c #CEB44F",
"b. c #D6B944",
"n. c #DDBD42",
"m. c #C7B15B",
"M. c #E6BC40",
"N. c #E3BD4C",
"B. c #C7B669",
"V. c #D3BF63",
"C. c #DEC243",
"Z. c #DEC354",
"A. c #E2C444",
"S. c #E8CA47",
"D. c #E3C54B",
"F. c #E5CB4C",
"G. c #E9CD4B",
"H. c #EAD249",
"J. c #F3D443",
"K. c #F9DD44",
"L. c #F8DC46",
"P. c #F3D44C",
"I. c #E4C552",
"U. c #E5CC54",
"Y. c #E9CD55",
"T. c #E5CF5A",
"R. c #E8D354",
"E. c #EAD254",
"W. c #E6D259",
"Q. c #E9D45D",
"!. c #ECD95C",
"~. c #F5D651",
"^. c #FEE04A",
"/. c #D5C16B",
"(. c #E3CE6F",
"). c #EBD664",
"_. c #EEDA63",
"`. c #E7D569",
"'. c #EDDB6B",
"]. c #F1DD64",
"[. c #F1DE6C",
"{. c #E4D374",
"}. c #ECDC74",
"|. c #E8D979",
" X c #F1DE73",
".X c #EFE066",
"XX c #F1E16A",
"oX c #EEE371",
"OX c #F1E174",
"+X c #F1E17C",
"@X c #9E9980",
"#X c #B1AB85",
"$X c #DBD589",
"%X c #D8CE94",
"&X c #E0D494",
"*X c #EFE38B",
"=X c #F1E58E",
"-X c #F2E595",
/* pixels */
"                                                                                                    ",
"                                                                                                    ",
"                                                                                                    ",
"                                                                                                    ",
"                                            X < 0 0 0 w r -                                         ",
"                                        s.J.J.q.C.S.F.R.Q.}.j.                                      ",
"                                    % , a.0.J.q.6.6.,.,.C.Z.k.= $ @                                 ",
"                              o p.f.b.6.9.0.w.r.r.t.J.S.6.>.,.b.v.l.g.6 +                           ",
"                            u.%.*.1.1.2.7.7.7.0.r.r.K.^.^.H.6.6.C.D.U.I.z.-                         ",
"                        $ f.| #.&.&.1.2.2.7.7.0.0.e.r.r.t.^.J.C.D.U.U.U.W.x.5                       ",
"                      & T } { | @.#.&.&.1.2.7.7.0.0.w.r.t.y.^.P.S.Y.W.W.Q.`.i.%                     ",
"                    . F ` ' { { | @.| &.&.1.2.2.8.8.0.0.e.t.K.K.G.U.Q.!.).).|.% X                   ",
"                    , Y _ _ ' ' { +.@.3.X.&.2.4.<.4.8.0.0.r.r.K.~.U.)._.'.'.'..                     ",
"                    w ( ~ ) _ ' [ { :.G.$.&.*.M.3.%.7.8.0.w.e.e.P.R._.XX X`.u..                     ",
"                  X S ! ) ~ ) _ _ { q.S.X.| %.,.5.$.*.2.2.:.7.q.A.Z./.B.l.w +                       ",
"                  + Z Q E ! ~ ) _ X.;.N...| %.:.M.3.>.A.D.).B.y y r < * @ .                         ",
"                  o Z J E Q ! ! _ ` O.>. .] @.;.5.q.A.F.U.{.j.                                      ",
"                    e G W E Q ( ( ) ` X.( ] +.$.:.:.,.C.Z.(.j.                                      ",
"                    8 N R W W Q / ! ! ) ) _ ] @.%.;.:.,.,.Z.x.4 %                                   ",
"                    + C M R R E E Q ! ! ) _ _ ] +.@.%.:.5.A.A.Z.B.g.7 +                             ",
"                      < c M R H W E Q / ! ~ _ _ _ { +.$.*.q.S.R.R.Q.`.c.r @                         ",
"                        3 x H H R E E Q Q ! ! ) _ ] [ { } $.,.F.!._._._.+X#X=                       ",
"                          2 B M H R R Q Q ! ! ) ~ _ _ { { } @.,.U.!..X_..XoX$X$                     ",
"                            & S V m M W E E Q / ~ ) _ _ _ { [ @.,.R.].].[..XoX%XX                   ",
"                                $ 9 S A M E Q Q ! ! ) ) _ ' ] [ @.A.!.]. XXXXX=X@X.                 ",
"                                    o % Z K K W Q ! ! ! ~ _ ' ] { ;.R.].XXXXOX+X&X*                 ",
"                                      . S K W ..U K Q ! ^ ) ^ ' ' $.I.[.[.XXOX+X-Xu                 ",
"                                      X e M L >.F. .G Q ! ~ ~ ^ _ +.N._.[.XXOXOX=Xh.                ",
"                              , q D k.k.T n N ;.H.F.I K Q ! ! ^ ~ _ N._.[. X X X*Xh.                ",
"                    O > k B l z x O.G.F.P m K %.S.F.o.G E E ! ! ! ` N.]._.[.}. X=Xh.                ",
"                    s f h l l z z I n.A.P n K $.q.F. .H E E L L ! ` N.!._._.'.}.-Xu                 ",
"                    i f f h h l l b  .>.P n N O.,.-.K H R E L L ! ..I.Q.).).'.|.%X=                 ",
"                    : d f g g l l l b Y N z N ....L M M H H H R Q =.U.W.).).).|.#X.                 ",
"                      p d d f f h h l v x z n N m m m M H H H J ( n.U.Y.T.).).%X5                   ",
"                        a d d d f h h l z z x x x n m M M M H K $.D.U.S.T.T.|.h.                    ",
"                        o p d d f g f l h l z z x x n m m m H ..n.D.F.I.U.(.,                       ",
"                            > a d g f h h l l z x x x x m G ..,.C.C.A.I.V.                          ",
"                                1 k a d f h h l l l z c I X.:.,.n.b.m..                             ",
"                                      9 k k j b I Y =.-.q.Z.m.; X                                   ",
"                                        q d j -.G.R.!.!._.{..                                       ",
"                                        q d j =.S.H.S.R.).|.                                        ",
"                                        < d g o.6.A.A.D.U.{.,                                       ",
"                                        # 3 e 3 D p.d.d.d.i.t                                       ",
"                                            X   X X X X X X .                                       ",
"                                                                                                    ",
"                                                                                                    ",
"                                                                                                    ",
"                                                                                                    ",
"                                                                                                    ",
"                                                                                                    "
};
