/* XPM */
static char *ebfc8f76a3464724d8085cd466a3915cy233q5I9OWBFFWTJ[] = {
/* columns rows colors chars-per-pixel */
"50 50 148 2 ",
"   c #000000",
".  c #0F0D07",
"X  c #0B0B0B",
"o  c #12110E",
"O  c #121211",
"+  c #1E1E1D",
"@  c #221F12",
"#  c #33250C",
"$  c #20201F",
"%  c #2F2D1E",
"&  c #36321D",
"*  c #3B361B",
"=  c #272625",
"-  c #2F2D2C",
";  c #373023",
":  c #3A3324",
">  c #32312D",
",  c #3B352C",
"<  c #3A382D",
"1  c #373632",
"2  c #3B3936",
"3  c #433D1C",
"4  c #543E12",
"5  c #5B3E10",
"6  c #413520",
"7  c #62440B",
"8  c #7C5504",
"9  c #7F5B06",
"0  c #73510D",
"q  c #7B5509",
"w  c #624B17",
"e  c #6F5117",
"r  c #7C5612",
"t  c #5A4627",
"y  c #47433B",
"u  c #49443C",
"i  c #4E483E",
"p  c #514B3F",
"a  c #675B2C",
"s  c #795A25",
"d  c #725C38",
"f  c #736630",
"g  c #4E4940",
"h  c #534D42",
"j  c #5B5345",
"k  c #5D5648",
"l  c #605645",
"z  c #645945",
"x  c #6B5C44",
"c  c #7D7555",
"v  c #855C01",
"b  c #895D04",
"n  c #8B5D09",
"m  c #885C12",
"M  c #8D6103",
"N  c #8D610A",
"B  c #946404",
"V  c #9A6705",
"C  c #9C6A03",
"Z  c #93640C",
"A  c #99670C",
"S  c #96690C",
"D  c #9C6A0B",
"F  c #8C6215",
"G  c #8F641A",
"H  c #946112",
"J  c #986510",
"K  c #9D6B12",
"L  c #92651A",
"P  c #9F7216",
"I  c #A26D04",
"U  c #A26E0C",
"Y  c #A77105",
"T  c #AA7305",
"R  c #A6710B",
"E  c #AB750C",
"W  c #AE790C",
"Q  c #B1760B",
"!  c #B37A0D",
"~  c #A26D12",
"^  c #A56E18",
"/  c #A57112",
"(  c #AB7413",
")  c #AE7814",
"_  c #A37319",
"`  c #AD761C",
"'  c #B17715",
"]  c #B47B14",
"[  c #B97E14",
"{  c #B57C19",
"}  c #B97F19",
"|  c #867226",
" . c #867D3C",
".. c #987F4C",
"X. c #B68515",
"o. c #BD8216",
"O. c #BD831A",
"+. c #BE8D1D",
"@. c #BC921F",
"#. c #BF8F21",
"$. c #C28417",
"%. c #C2851A",
"&. c #C5881B",
"*. c #C69521",
"=. c #C89724",
"-. c #CC9B26",
";. c #C9992A",
":. c #CDA32D",
">. c #D4A627",
",. c #D5A42D",
"<. c #D2A92C",
"1. c #D9AF2D",
"2. c #DBB72F",
"3. c #CCA530",
"4. c #D2A530",
"5. c #D5AC33",
"6. c #DCAE35",
"7. c #D7AA38",
"8. c #D8AE39",
"9. c #D9B433",
"0. c #DDBD35",
"q. c #DAB338",
"w. c #D3B83D",
"e. c #DFBF38",
"r. c #E0BF36",
"t. c #E2C13D",
"y. c #998457",
"u. c #A49942",
"i. c #A89459",
"p. c #B9AD4C",
"a. c #B8A156",
"s. c #8F8860",
"d. c #C0B145",
"f. c #CEB348",
"g. c #E2C343",
"h. c #E7CB45",
"j. c #E9CD45",
"k. c #E9CE4A",
"l. c #EACE4E",
"z. c #EDCF4C",
"x. c #E5D242",
"c. c #E5D045",
"v. c #E7D44A",
"b. c #EED34E",
"n. c #EBD94D",
"m. c #EDD751",
"M. c #EBD852",
"N. c #F0D853",
/* pixels */
"                                                                                                    ",
"                                                                                                    ",
"                                                                                                    ",
"                                                                                                    ",
"                                                                                                    ",
"                                                                                                    ",
"                                    $ y y u u y i i p p 1                                           ",
"                                    j 9 N Z J ~ ~ E W ! y.X                                         ",
"                                  X x n Z V U ~ E ) ! O.a.+                                         ",
"                                  g r b M B V V C I Y 3.n.s.X                                       ",
"                                X d b n B V U I R T ] g.N. .                                        ",
"                                = s n Z A D U R W Q +.l.m.d.                                        ",
"                                2 r H S D U ) W ] ! =.b.n.M.                                        ",
"                                g F J K ~ ( ) ' ] [ ,.m.v.n.                                        ",
"                                h F J P / ( ] { o.o.5.j.w.k.                                        ",
"                                j G K P / ) { o.o.$.6.t.:.|   X                                     ",
"                                k L K _ ` ' { } %.&.6.g.w   O                                       ",
"                                k L K _ ` { } O.&.&.q.t..                                           ",
"                                k L K _ ` { } O.%.%.8.h.@                                           ",
"                                j G D _ ` ' ] } %.%.7.z.&                                           ",
"                                g r D P / ( ] ] [ o.4.k.p.                                          ",
"                                > q J S U / ( ] ] [ -.k.x.% X                                       ",
"                                  e H S D R R ( Q ! *.h.c.u.-                                       ",
"                                  t N Z S I R R E Q O.t.c.c.<                                       ",
"                                  ; 8 N B C I I Y T ' 5.j.x.o                                       ",
"                                    4 b M B V C C Y I *.g.j.  X                                     ",
"                                    : b Z B D U R Y Q ! 6.j.* O                                     ",
"                                    , F K ^ ( { o.o.%.&.,.h.*                                       ",
"                                    < m J K / ( ! [ o.o.-.q.3                                       ",
"                                    6 n Z Z D U R E ] +.=.:.f                                       ",
"                                  # Z ~ ~ ( ] { [ o.4.5.*.=.a                                       ",
"                                  r K ^ ` ( ] X.O.%.1.9.*.>.*                                       ",
"                                  0 A K / ( ) ] { o.<.2.;.>.@                                       ",
"                                  7 Z D D / ( ! ! ] :.0.:.2.                                        ",
"                                  7 B S D U R R W W =.0.q.e.@                                       ",
"                                  5 n M Z C U R T E @.0.e.g.c                                       ",
"                                  s b N B V C I Y Y X.9.r.0.k                                       ",
"                                  d v M M V C C I I W <.0.f.1                                       ",
"                                  h q v M M V C C C Y @.2.i.O                                       ",
"                                  o x b B V D R R E Q X.#.2                                         ",
"                                    l N A ~ R ) ] [ $.%.y.X                                         ",
"                                    j m M S D U ( Q Q ! ..X                                         ",
"                                    j q b b V C I I T T ...                                         ",
"                                    - j j j j l l l l z g                                           ",
"                                                                                                    ",
"                                                                                                    ",
"                                                                                                    ",
"                                                                                                    ",
"                                                                                                    ",
"                                                                                                    "
};
