/* XPM */
static char *_4d537c0ca204329b5400b607ce25344gRHvpfSlZbSiYmob[] = {
/* columns rows colors chars-per-pixel */
"50 50 125 2 ",
"   c black",
".  c gray1",
"X  c gray2",
"o  c gray3",
"O  c gray5",
"+  c gray6",
"@  c #101010",
"#  c #131211",
"$  c gray8",
"%  c #1A1714",
"&  c #181818",
"*  c gray12",
"=  c #211E1D",
"-  c #202020",
";  c gray15",
":  c #272727",
">  c #2E2621",
",  c gray17",
"<  c #2C2C2B",
"1  c gray18",
"2  c #342D28",
"3  c #3D3128",
"4  c gray19",
"5  c gray20",
"6  c #353432",
"7  c #343434",
"8  c gray21",
"9  c #373737",
"0  c gray22",
"q  c gray23",
"w  c #3C3C3C",
"e  c #3E3E3E",
"r  c #3F3F3F",
"t  c #443931",
"y  c #433C36",
"u  c #443F39",
"i  c #443F3B",
"p  c #40403F",
"a  c #4D433B",
"s  c #50433B",
"d  c #55463A",
"f  c #50453D",
"g  c #59483B",
"h  c #5C493A",
"j  c #5C4A3C",
"k  c #614C3C",
"l  c #624D3C",
"z  c #414141",
"x  c #434343",
"c  c #444444",
"v  c gray28",
"b  c #4E4640",
"n  c #4B4845",
"m  c #484848",
"M  c gray29",
"N  c #4C4C4C",
"B  c gray31",
"V  c #574A40",
"C  c #56514E",
"Z  c #505050",
"A  c #565757",
"S  c gray34",
"D  c #585858",
"F  c #5A5A59",
"G  c #5B5B5B",
"H  c #5F5F5F",
"J  c #715742",
"K  c #735843",
"L  c #645E59",
"P  c #615F5D",
"I  c #606060",
"U  c gray39",
"Y  c gray40",
"T  c #676767",
"R  c #6A6A6A",
"E  c gray42",
"W  c gray43",
"Q  c #6F6F6F",
"!  c #72706E",
"~  c gray45",
"^  c gray46",
"/  c #777574",
"(  c #777777",
")  c #787877",
"_  c gray48",
"`  c #7E7E7E",
"'  c #808080",
"]  c #818181",
"[  c #838383",
"{  c #848484",
"}  c #888888",
"|  c #8B8B8B",
" . c #8E8E8E",
".. c gray56",
"X. c #929292",
"o. c gray58",
"O. c gray60",
"+. c #9B9B9B",
"@. c gray61",
"#. c #A2A2A2",
"$. c gray65",
"%. c #A9A9A9",
"&. c gray68",
"*. c gray69",
"=. c #B4B4B4",
"-. c gray72",
";. c gray",
":. c gray76",
">. c gray77",
",. c gray78",
"<. c gray79",
"1. c #CBCBCB",
"2. c #D0D0D0",
"3. c gray83",
"4. c #D5D5D5",
"5. c #D8D8D8",
"6. c gray85",
"7. c gainsboro",
"8. c #DDDDDD",
"9. c #DFDFDF",
"0. c gray89",
"q. c #E4E4E4",
"w. c #E6E6E6",
"e. c #E7E7E7",
"r. c gray91",
/* pixels */
"                                                                                                    ",
"                                                                                                    ",
"                                                                                                    ",
"                                                                                                    ",
"                                                                                                    ",
"                                                                                                    ",
"                                    + - e z e 0 @ X   o 7 $                                         ",
"                            X @ - 1 0 z z 0 7 N Z N N Z Z N e                                       ",
"                          - 7 0 e z z z z 0 c Z N Z Z N Z N Z M                                     ",
"                          , 6 e e e z e e z N Z Z N N Z Z Z N Z 7                                   ",
"                          4 1 7 7 z e z z M Z N N N N c z z N N Z :                                 ",
"                            7 1 0 z z e z N N Z Z c z Z T F z N Z c                                 ",
"                            4 0 z z e e e N N M e F ..*.;.=.E e N N                                 ",
"                            : e e z z z M Z N z ^ =.2.8.0.8.-.I c N z                               ",
"                            7 7 z z e z N Z z Q $.>.0.r.e.e.8.%.M c T                               ",
"                            e 0 e e z z N c M F z c ` 6.e.e.0.<.^ 4 _                               ",
"                            c 0 e e z z M z M z m z 7 ..0.2.^ Z F 0 ..                              ",
"                            M 0 z e e e e c c M N N e Z <.] e z 7 0 O.                              ",
"                            e 0 z e 0 z 0 I M N N M c M :.I M M 7 G o.                              ",
"                            - 0 z e z e 0 ..A M M N c D <.F N M e ~ ..                              ",
"                              e e e r r 7 @.{ e M M 7 ..8.I M N 0 _ ]                               ",
"                              N 0 z r r 4 Q <.E M M ~ 2.r.O.c z 0 ` I                               ",
"                              e e e e r e z %.4.>.<.6.6.0.0.#.| ....e                               ",
"                                F 7 e r r 7 Z { o.:.e.5.4.6.8.>.] X.+                               ",
"                                  E e 7 e z 1 , 4 X.-.&.:.$.O.e N *.                                ",
"                                    N F 0 7 7 1 1 Q ^ | #.^ Q e | D                                 ",
"                                      e ~ 1 1 1 < 4 7 z c N T X.T                                   ",
"                                      | z e e 0 z c c r e O._                                       ",
"                                      0 0 M 0 z Z N N M M ~                                         ",
"                                    $ 7 0 e 7 c Z Z N N Z E                                         ",
"                                    E | c 4 0 c N N N N N E                                         ",
"                                  $ O.e.&.z e z N N N Z N {                                         ",
"                                  2 ! 6.#.c e c N N N Z 0 z N F ] _ c $                             ",
"                                  = 6 F 7 7 e z N N N M i > 3 t t a b c n P F N :                   ",
"                                        7 1 * , z c z , & < i y f g h l l k l h d > % @             ",
"                                          X + + $ & 1 0 A ^ M ~ ..] / L b V j l J K J i             ",
"                                                                        & A ~ G C a h L &           ",
"                                                                                  D ] p             ",
"                                                                                                    ",
"                                                                                                    ",
"                                                                                                    ",
"                                                                                                    ",
"                                                                                                    ",
"                                                                                                    ",
"                                                                                                    ",
"                                                                                                    ",
"                                                                                                    ",
"                                                                                                    ",
"                                                                                                    ",
"                                                                                                    "
};
