/* XPM */
static char *a7df1c7f62b74186cccce50a0b641ab5MTVqzR3yCr04R3hj[] = {
/* columns rows colors chars-per-pixel */
"50 50 224 2 ",
"   c black",
".  c #020202",
"X  c #010101",
"o  c #090909",
"O  c #111111",
"+  c #191919",
"@  c #1E1E1E",
"#  c #252525",
"$  c gray13",
"%  c #1B1B1B",
"&  c #131313",
"*  c gray4",
"=  c gray6",
"-  c #2F2F2F",
";  c gray22",
":  c #444444",
">  c #4B4B4B",
",  c #494949",
"<  c #393939",
"1  c #222222",
"2  c gray2",
"3  c gray11",
"4  c #323232",
"5  c gray24",
"6  c gray31",
"7  c #4E4E4E",
"8  c #505050",
"9  c gray30",
"0  c gray10",
"q  c #181818",
"w  c #0C0C0C",
"e  c #060606",
"r  c #202020",
"t  c gray25",
"y  c #6C6C6C",
"u  c #747474",
"i  c #5A5A5A",
"p  c #0E0E0E",
"a  c gray5",
"s  c gray15",
"d  c #3A3A3A",
"f  c #414141",
"g  c gray29",
"h  c #5F5E5E",
"j  c #939393",
"k  c #959595",
"l  c #909090",
"z  c DimGray",
"x  c #272727",
"c  c #3E3E3E",
"v  c #434343",
"b  c gray23",
"n  c #464646",
"m  c #484848",
"M  c gray56",
"N  c #A5A5A5",
"B  c #9D9D9D",
"V  c gray55",
"C  c gray20",
"Z  c #242323",
"A  c #343434",
"S  c #3C3C3C",
"D  c #3F3F3F",
"F  c gray27",
"G  c gray47",
"H  c #A2A2A2",
"J  c gray28",
"K  c #8D8D8D",
"L  c #797979",
"P  c #4C4C4C",
"I  c gray17",
"U  c #0D0D0C",
"Y  c #2A2A2A",
"T  c #373737",
"R  c gray26",
"E  c #535353",
"W  c #9B9B9B",
"Q  c gray76",
"!  c gray83",
"~  c #D0D0D0",
"^  c gray67",
"/  c #5D5D5D",
"(  c #2C2C2C",
")  c #101010",
"_  c #313131",
"`  c gray32",
"'  c #A7A7A7",
"]  c gray89",
"[  c #E7E7E7",
"{  c gray87",
"}  c #B9B9B9",
"|  c gray9",
" . c #040404",
".. c gray18",
"X. c gray61",
"o. c #D2D2D2",
"O. c gray90",
"+. c gray91",
"@. c #E6E6E6",
"#. c #E4E4E4",
"$. c #BBBBBB",
"%. c gray52",
"&. c gray7",
"*. c #686868",
"=. c #7E7E7E",
"-. c gray39",
";. c #727272",
":. c gray73",
">. c gray8",
",. c #070707",
"<. c #555555",
"1. c gray80",
"2. c #151515",
"3. c #7C7C7C",
"4. c #B6B6B6",
"5. c #494948",
"6. c gray38",
"7. c gray74",
"8. c #40403F",
"9. c #626262",
"0. c gray82",
"q. c gray37",
"w. c #868686",
"e. c #585858",
"r. c LightGray",
"t. c #A9A9A9",
"y. c gray42",
"u. c #353535",
"i. c #646464",
"p. c #D8D8D8",
"a. c #DFDFDF",
"s. c #C8C8C8",
"d. c #BCBCBC",
"f. c gray34",
"g. c gray16",
"h. c gray77",
"j. c #B7B7B7",
"k. c #9D9D9C",
"l. c gray84",
"z. c gray85",
"x. c gray45",
"c. c #3E3D3D",
"v. c #161616",
"b. c gray21",
"n. c #636362",
"m. c #C5C5C5",
"M. c #D7D7D7",
"N. c gray86",
"B. c gainsboro",
"V. c gray72",
"C. c #B2B2B2",
"Z. c #676766",
"A. c #363635",
"S. c gray63",
"D. c gray65",
"F. c gray62",
"G. c #808080",
"H. c #5B5B5B",
"J. c #656565",
"K. c #838383",
"L. c #232323",
"P. c #686867",
"I. c gray43",
"U. c gray36",
"Y. c #4E4D4D",
"T. c gray48",
"R. c gray60",
"E. c #282828",
"W. c #393938",
"Q. c #767676",
"!. c #7C7A79",
"~. c #42372E",
"^. c #11100F",
"/. c gray1",
"(. c #2E2D2D",
"). c gray19",
"_. c #3A3634",
"`. c #674E3D",
"'. c #3C3129",
"]. c #040505",
"[. c gray12",
"{. c #4F4035",
"}. c #6B503D",
"|. c #221E1B",
" X c #000101",
".X c #010202",
"XX c #272321",
"oX c #6D523F",
"OX c #594436",
"+X c #111010",
"@X c gray14",
"#X c #0B0B0B",
"$X c #483B32",
"%X c #7A5942",
"&X c #42352C",
"*X c #060707",
"=X c #818181",
"-X c #211E1C",
";X c #5F493A",
":X c #70533E",
">X c #2D2722",
",X c #030404",
"<X c #E2E2E2",
"1X c #C0C0C0",
"2X c #3B322C",
"3X c #755641",
"4X c #694F3C",
"5X c #221F1D",
"6X c gray3",
"7X c #9A9A9A",
"8X c #474646",
"9X c #1E1B19",
"0X c #534236",
"qX c #775740",
"wX c #4B3C32",
"eX c #0E0E0F",
"rX c #606060",
"tX c #2F2A27",
"yX c #3E342E",
"uX c #24211E",
"iX c #0B0B0C",
"pX c #2D2D2D",
"aX c #1D1D1D",
"sX c white",
/* pixels */
"                                                                                                    ",
"                                                                                                    ",
"                                                                                                    ",
"                                                                                                    ",
"                                            . X                                                     ",
"                                  . o O + @ # $ % & * .                                             ",
"                              . = $ - ; : > > > , : < 1 *                                           ",
"                            2 3 4 5 5 , 6 7 7 7 6 6 8 9 4 0 q w 2                                   ",
"                          e r < t 5 ; 9 7 7 7 7 7 7 7 6 6 5 y u i 4 p                               ",
"                      X a s d t t ; f 6 7 7 7 7 7 > > 7 8 g h j k l z x 2                           ",
"                  2 = @ - 5 t t t d g 7 7 7 7 , c v b n 7 8 m M N N B V C e                         ",
"                2 Z A S D c t t t v 7 7 7 7 v F G H V 7 t 8 J K H L > P I U                         ",
"                e Y T < 5 S c t D m 6 7 7 R E W Q ! ~ ^ / f J ; ( ) 2 . X                           ",
"                  q _ T 4 S c D b t 6 6 F ` ' ~ ] [ [ { } / D |                                     ",
"                   .3 ..- c t c S F 6 > F X.o.O.+.@.@.#.$.%.S &                                     ",
"                    . &...t t D c g 6 v *.=.-.;.:.[ [ W R 5 C >.                                    ",
"                      ,...t t t D J 9 v <.d S T m Q 1.` J v C 2.                                    ",
"                      2 I t t t t n J D D , > n ; 3.4., > m b s                                     ",
"                      . s t t t t : f 5.F 7 7 9 c 6.7.P 9 9 D c 2                                   ",
"                      X r c t t t t < / J 7 7 7 8.9.0.q., 7 T 8 q                                   ",
"                        | b t t t D ; w.e.g 7 > d %.r.t.7 F y.9.$                                   ",
"                        a u.t t t D A w.N n t 5 i.o.p.a.s.d.0.f.=                                   ",
"                         .g.D t t D u.n h.j.%.k.l.+.{ z.#.4.x.c.+                                   ",
"                          v.< t t c 5 b.n.$.m.7.M.N.B.V.C.Z.( b ; 2                                 ",
"                           .1 S t D c c A.g 9 D S.H D.F.G.H.J.G K.)                                 ",
"                            ,.L.; D D 5 c A ( - P.I./ U.d u.Y.T.R.3 X                               ",
"                               .2.# - 4 A u...E...C C _ R ; W.Q.!.~.^.                              ",
"                                  /.o >.(.b.).b R J , S ; - I )._.`.'.].                            ",
"                                      3 D J u., 7 6 7 R [.) ,.. ) {.}.|. X                          ",
"                                    o I R v T , 7 7 P g q       .XXXoXOX+X                          ",
"                                  . [.A < C S J 9 9 g 7 @X        #X$X%X&X*X                        ",
"                                  = y.=X9 C 5 n > > P 8 4 /.       X-X;X:X>X,X                      ",
"                                  2.j <X1XP b n > > 7 6 D o         o 2X3X4X5X.                     ",
"                                  6Xq.1.7XR 5 m P P 9 8Xt &.          9X0XqXwXeX                    ",
"                                    2.rXv C ; D > , R 4 $ *           6XtXyXuX,.                    ",
"                                      2 * >.0 1 # 3 >.o .             X w iX.                       ",
"                            . p               . X                   .                               ",
"                            s 3                                     o )                             ",
"                          @XC .                                     X | p                           ",
"                        0 t ,.                                        /.= .                         ",
"                      = D a                                               . X                       ",
"                    6X5 2.                                                . e X                     ",
"                  /.< r                                                      . .                    ",
"      O 6X        4 pX                                                        /.#X                  ",
"      + d  .    I 5 .                                                           r +      . .        ",
"        Y 4   r , ,.                                                            2 < & . x 6X        ",
"        X C c g =                                                                 O t S $           ",
"          ) 3.T                                                                     b 9.2           ",
"         .; ).R >.                                                                3 < L.s X         ",
"        ( (   & ; 2                                                             w 5 w   @XaX        "
};
