/* XPM */
static char *_6cfeeb9727f440beac0f7ebf17c69f8BlhZZksQi2ZDTm8T[] = {
/* columns rows colors chars-per-pixel */
"50 50 111 2 ",
"   c black",
".  c #040404",
"X  c gray2",
"o  c #070606",
"O  c #070707",
"+  c gray3",
"@  c gray4",
"#  c #0C0A08",
"$  c #0E0D0C",
"%  c #0E0E0E",
"&  c #11100F",
"*  c gray7",
"=  c #131313",
"-  c #151515",
";  c gray9",
":  c #1E1712",
">  c #1B1B1B",
",  c gray11",
"<  c gray12",
"1  c #222222",
"2  c #252525",
"3  c gray17",
"4  c #2C2C2B",
"5  c #2D2D2D",
"6  c gray18",
"7  c #313131",
"8  c gray20",
"9  c #343434",
"0  c #353434",
"q  c gray21",
"w  c #383330",
"e  c gray22",
"r  c gray23",
"t  c #3C3C3C",
"y  c gray24",
"u  c #3F3F3F",
"i  c #453A31",
"p  c #473A32",
"a  c #4A3E35",
"s  c #453E38",
"d  c #5D4536",
"f  c #654D3C",
"g  c #6A4E3B",
"h  c #70523D",
"j  c #73543E",
"k  c #77563F",
"l  c #414141",
"z  c #434343",
"x  c #444443",
"c  c #444444",
"v  c #444445",
"b  c #464646",
"n  c gray28",
"m  c #484848",
"M  c #494949",
"N  c #4B4B4B",
"B  c #4E4A48",
"V  c gray30",
"C  c gray31",
"Z  c #5B5048",
"A  c #5D524A",
"S  c #5D524B",
"D  c #505050",
"F  c gray33",
"G  c #565656",
"H  c #585755",
"J  c #585858",
"K  c gray36",
"L  c #5F5F5F",
"P  c gray39",
"I  c #646464",
"U  c gray40",
"Y  c #6B6765",
"T  c #6A6A6A",
"R  c gray43",
"E  c #6F6F6F",
"W  c #72706F",
"Q  c gray45",
"!  c #767676",
"~  c #777777",
"^  c #7B7B7B",
"/  c #7C7C7C",
"(  c gray49",
")  c gray50",
"_  c #808080",
"`  c gray52",
"'  c #8B8B8B",
"]  c #8E8E8E",
"[  c #909090",
"{  c gray58",
"}  c gray60",
"|  c gray61",
" . c gray62",
".. c gray63",
"X. c gray64",
"o. c #A7A7A7",
"O. c gray66",
"+. c #AAAAAA",
"@. c gray68",
"#. c #AFAFAF",
"$. c #B1B1B1",
"%. c gray70",
"&. c #BBBBBB",
"*. c #C3C3C3",
"=. c gray77",
"-. c #C8C8C8",
";. c gray81",
":. c gray84",
">. c #D7D7D7",
",. c #DFDFDF",
"<. c #E4E4E4",
/* pixels */
"                                                                                                    ",
"                                                                                                    ",
"                                                                                                    ",
"                                                                                                    ",
"                                                                                                    ",
"                                    + 3 l y 3 3 *   3 K 7                                           ",
"                                X r y 9 y y b V V 2 M b l K y                                       ",
"                            X 5 M 9 y l y 9 V V V V V V D M b J                                     ",
"                        > 1 r 9 y l l l 9 b D V D V V V V D V b l                                   ",
"                        2 9 y y y l y y y V V D D V D V D V V V K                                   ",
"                        1 7 r y l l l l V D V V D V b y r M V D M m                                 ",
"                        > 5 7 9 y l y l V V V V b y J ^ ! l M D M (                                 ",
"                          5 3 r l y y r V D V l D [ &.=.=.[ b M V E o                               ",
"                            r r l l y b V V l P $.;.,.<.<.;.' l M I 1                               ",
"                            9 y y l l M V b G o.*.      ` <.;.R y I <                               ",
"                            5 y y l l M V l P M b X     &.:.o.` y W X                               ",
"                            3 9 l y l M b b y x b 9 J   :.T y y 7 _                                 ",
"                            1 5 9 l y b l b b V V b r +. .l M y 9 }                                 ",
"                            , y l y y y b D M V M M r ..' M V l m @.                                ",
"                            > t l y y r K Q b V V M r $.' b V b m %.                                ",
"                            * 1 l y y r   +.b M M l G :.$.b V l l %.                                ",
"                              ; l y y       [ b l G +.  7 ( M D K $.                                ",
"                              - 2 y y 5 X   Q *.&.=.          -.! @.                                ",
"                                , 9 y l y r ( ..+.        y @._ U &.                                ",
"                                + 5 9 s y r 5 7 r +     T +.G 4 ' 8                                 ",
"                                  + y 9 9 r e 5 7 ( K [ ( ! V ( +.                                  ",
"                                    X b V 5 3 5 5 7 9 9 r P { !                                     ",
"                                      M x y r r l b b y 7 [                                         ",
"                                    , G r M 9 l V V V M 9 K       o                                 ",
"                                    b 7 r y 9 b D V V V 9 r b * % : #                               ",
"                                  * D U y 7 r M V V M D r 2 *   X % %                               ",
"                                  3 b ^ ' r y l M V V V 2 ,                                         ",
"                                  , G Q $.b y b V V V D %                                           ",
"                                    V ` b 8 y b V 9 > 3                                             ",
"                                    - T H y 7 y m b b X                                             ",
"                                      + L X.( l 8 a p X                                             ",
"                                          ! W s f j A                                               ",
"                                        G H p h h A %                                               ",
"                                        { B g k A _                                                 ",
"                                        K Y d A ..                                                  ",
"                                          { M  .+                                                   ",
"                                          - +.X                                                     ",
"                                                                                                    ",
"                                                                                                    ",
"                                                                                                    ",
"                                                                                                    ",
"                                                                                                    ",
"                                                                                                    ",
"                                                                                                    ",
"                                                                                                    "
};
