/* XPM */
static char *_5832c9daf284bbef54e9990b92cdb19Kjyfc6bIYGgL39SC[] = {
/* columns rows colors chars-per-pixel */
"50 50 211 2 ",
"   c #010001",
".  c #0A0609",
"X  c #0D0D0D",
"o  c #17090B",
"O  c #130E12",
"+  c #1A0F17",
"@  c #141214",
"#  c #181216",
"$  c #1C141A",
"%  c #1F191F",
"&  c #260908",
"*  c #310907",
"=  c #2F1719",
"-  c #392B0B",
";  c #352717",
":  c #251B23",
">  c #2A1C27",
",  c #2E222B",
"<  c #2E282E",
"1  c #342631",
"2  c #372934",
"3  c #3A2A36",
"4  c #3D2B39",
"5  c #373238",
"6  c #3D343C",
"7  c #460504",
"8  c #4A0402",
"9  c #5D0302",
"0  c #590A09",
"q  c #4B1817",
"w  c #551314",
"e  c #591617",
"r  c #630101",
"t  c #6C0202",
"y  c #750000",
"u  c #7B0101",
"i  c #43331F",
"p  c #553A14",
"a  c #57272D",
"s  c #4A3625",
"d  c #533C2A",
"f  c #5B2D32",
"g  c #473538",
"h  c #56393A",
"j  c #6A2428",
"k  c #564014",
"l  c #684A1C",
"z  c #6E5018",
"x  c #4E4135",
"c  c #58443B",
"v  c #6A4923",
"b  c #654728",
"n  c #64472B",
"m  c #775A25",
"M  c #6E4E33",
"N  c #664B3B",
"B  c #6D4939",
"V  c #775737",
"C  c #2B3D43",
"Z  c #462E41",
"A  c #463641",
"S  c #4A3544",
"D  c #473B45",
"F  c #4C3943",
"G  c #523E42",
"H  c #543B4A",
"J  c #613B46",
"K  c #39545A",
"L  c #5A4548",
"P  c #5B454C",
"I  c #4A4D53",
"U  c #534654",
"Y  c #5B4454",
"T  c #50555F",
"R  c #644C43",
"E  c #654B48",
"W  c #695242",
"Q  c #745642",
"!  c #7C5B43",
"~  c #624A53",
"^  c #624359",
"/  c #644A5D",
"(  c #6A5359",
")  c #775959",
"_  c #415B61",
"`  c #5C5866",
"'  c #6B4B63",
"]  c #6A5468",
"[  c #735469",
"{  c #7A5B6D",
"}  c #6F5E72",
"|  c #4A646B",
" . c #566365",
".. c #556C74",
"X. c #49737D",
"o. c #726C77",
"O. c #820000",
"+. c #8C0000",
"@. c #950000",
"#. c #89581D",
"$. c #905A18",
"%. c #85641E",
"&. c #976416",
"*. c #997113",
"=. c #AE6D0E",
"-. c #B16C0D",
";. c #AB700F",
":. c #B6730C",
">. c #A26411",
",. c #A86C11",
"<. c #A97010",
"1. c #A97E15",
"2. c #A47B1A",
"3. c #845626",
"4. c #865C39",
"5. c #926D31",
"6. c #956939",
"7. c #AE7E24",
"8. c #C5790B",
"9. c #CC7D0C",
"0. c #80584E",
"q. c #8D6343",
"w. c #8A6A41",
"e. c #976944",
"r. c #8A6A5A",
"t. c #9C7756",
"y. c #A7724A",
"u. c #A67954",
"i. c #B27C57",
"p. c #906F6D",
"a. c #AC8114",
"s. c #B58615",
"d. c #BC8C16",
"f. c #B7831B",
"g. c #B88729",
"h. c #D68508",
"j. c #DF890A",
"k. c #C48813",
"l. c #C59316",
"z. c #C69418",
"x. c #C99519",
"c. c #CF9A18",
"v. c #DB9F17",
"b. c #D59E19",
"n. c #E08A07",
"m. c #E38C0C",
"M. c #E6920E",
"N. c #E79511",
"B. c #E89611",
"V. c #E79911",
"C. c #E99D14",
"Z. c #DBA219",
"A. c #E2A317",
"S. c #ECA415",
"D. c #EDA917",
"F. c #E2A619",
"G. c #E6AB19",
"H. c #EDAD1A",
"J. c #F0AF18",
"K. c #EEB01B",
"L. c #F1B21A",
"P. c #F0B11C",
"I. c #F1B21C",
"U. c #D09438",
"Y. c #AC815D",
"T. c #B8835B",
"R. c #B88864",
"E. c #BA906B",
"W. c #C58456",
"Q. c #CC8C5B",
"!. c #D18F5E",
"~. c #C88E62",
"^. c #CC9062",
"/. c #D89766",
"(. c #D19F74",
"). c #D4A379",
"_. c #547680",
"`. c #767C8B",
"'. c #8A6482",
"]. c #A87799",
"[. c #59838C",
"{. c #5B8B98",
"}. c #5E929F",
"|. c #6A8E96",
" X c #5F9AA9",
".X c #619BA9",
"XX c #739CA4",
"oX c #7BA6AE",
"OX c #69AAB9",
"+X c #7AACB7",
"@X c #79C7D8",
"#X c #7ED4E6",
"$X c #A18CA8",
"%X c #81AAB2",
"&X c #86B8C3",
"*X c #81C0CF",
"=X c #90C3CE",
"-X c #95CBD7",
";X c #90D0DD",
":X c #84DAEE",
">X c #8BDCEF",
",X c #97DAE8",
"<X c #85DDF2",
"1X c #8CDEF1",
"2X c #A4DFEE",
"3X c #94E1F3",
"4X c #9AE4F4",
"5X c #A5E1EF",
"6X c #A4E5F4",
"7X c #A8E9F6",
"8X c #A8EAF8",
/* pixels */
"            X X X X X X O X X X X X X X X X X X X X X X X X X X X X X @ X X X X X X X X X X X X X X ",
"            X X X X X X X X X X X X X X X X X X             .           X X X X X X X X X X X X X X ",
"X X X X X X             X X X X X X X > : 2 S D 4 , $ .                 X X X X X X X X X X X X X X ",
"X X X X X X             X X X X X O 1 ) 5.g.z.x.x.z.g.5.Q G , X         X X X X X X X X X X X @ X X ",
"X X X X X X             X X X X X : V Z.L.I.I.I.I.I.I.K.K.Z.d.V D # X X X X X X X X X X X X X X .   ",
"X X X X X X X X         X X X X X E F.K.K.I.H.H.K.K.K.K.K.K.I.K.x.5.A X X X X X X X X X X X X X     ",
"X X X X X X X X         X X X X @ W F.K.H.C.N.N.N.V.C.S.H.K.K.K.I.I.x.! < X O X O X X X X X X X     ",
"            X X X X X X X O X X % ] 1.H.M.m.m.m.m.m.m.m.M.V.H.K.K.I.I.G.2.F X X X X X X X X X X     ",
"            X X X X X X X X X % ~ w.d.D.m.m.m.m.m.m.m.m.m.m.m.N.D.I.H.H.I.l.W # X X X X X X X X X X ",
"            X X X X X X X X @ ~ g.H.S.B.m.m.m.m.j.m.m.m.m.m.m.m.N.S.I.I.I.I.Z.V : X X X X O X X X X ",
"X X X X X X             X @ P 7.v.k.:.-.-.;.;.;.<.<.<.<.;.;.<.<.-.:.k.b.F.H.L.F.m @ X X X X X X X X ",
"                        O F v 1.f.k.z.b.b.Z.Z.Z.A.A.A.A.A.Z.v.v.b.x.d.s.a.1.s.F.Z.L X X X X X X     ",
"                      g V U.G.K.K.H.S.C.N.N.N.N.M.M.m.m.m.m.N.N.N.C.S.S.H.Z.b.Z.I.2.~ @ X X X X     ",
"                    d U.I.I.H.C.N.m.m.m.m.m.m.m.m.m.m.m.m.m.m.m.m.m.m.m.M.N.D.K.H.K.Z.m < X X X     ",
"X X               g g.K.K.H.B.m.m.m.m.m.m.m.m.m.m.m.m.m.m.m.m.m.m.n.m.m.m.m.M.C.K.K.K.K.m @ X X     ",
"X X             X n *.H.H.B.m.m.m.m.m.m.m.m.m.m.m.m.m.m.m.m.m.m.m.m.m.m.m.m.j.M.S.K.d.z.m : X X     ",
"X X X         # g - d.I.C.m.m.m.m.m.m.m.m.m.m.m.m.m.m.m.m.m.m.m.m.m.m.m.m.m.m.m.M.J.s.p c , X X X X ",
"X X X       $ h i.k Z.K.M.m.m.m.m.m.m.m.m.m.m.m.m.m.m.m.m.m.m.m.m.m.m.m.m.m.m.m.m.D.l.n T.L O   X X ",
"X X X       > Q T.l G.K.M.m.m.m.m.m.m.m.m.m.m.m.m.m.m.m.m.m.m.m.m.m.m.m.m.m.m.m.m.S.l.v /.R O   X X ",
"X X X X X   $ R W.l Z.H.M.m.m.m.m.m.m.m.m.m.m.m.m.m.m.m.m.m.j.m.m.m.m.m.m.m.m.m.m.S.s.M ~.~ .       ",
"X X X X X X @ L 0.v x.I.V.m.m.m.m.m.m.m.m.m.m.m.m.m.j.m.m.m.m.m.m.m.m.m.m.m.m.m.m.D.%.6.Q 2         ",
"X X X X X X X : L B z b.D.M.m.m.m.m.m.m.m.m.m.m.m.m.m.m.m.m.m.m.m.m.m.m.m.m.m.n.B.k.l N F           ",
"X X X X X X X X @ g F ; %.d.h.M.m.m.m.m.m.m.m.m.m.m.m.m.m.m.m.m.m.m.m.m.m.m.m.m.;.d L :             ",
"X X X X X X X X X X O < L M V $.>.8.j.m.m.m.m.m.m.m.m.m.m.m.m.m.m.m.M.m.h.h.>.p Y : . . X X X X     ",
"X X X X X X X X X X X X $ ~ ) t.u.4.3.#.=.9.n.M.M.m.m.m.M.m.m.n.h.8.-.&.3.M g H @ X X X X X X X     ",
"X X X @ X X X X X X X X X X , { r.R.~.i.6.3.#.,.8.j.m.8.,.&.$.3.4.e.u.u.r.{ O X X X X X X X X X X X ",
"          X X X X X X X X X X X % { r.i.~.Q.6.M i v #.i n 4.i.(.).E.p.p.3 X X X X X X X X X X X X X ",
"          X X X X X X X X X X X X O 2 [ ) f  .oX&X&X+X&X%XXXo.N ) ].' + X X X X X X X X X X X X X X ",
"            X X X X X X X O X X X : / o.`.C =X8X6X3X1X3X4X7X2X_ | $X'.Z X X X X X X X X X X X X     ",
"            X X X X X X         3 } |.;XOX| 6X3X:X:X:X:X<X1X6XoX_.>X+X`.'.X X X X X X X X X X X     ",
"            X X X X X X       : T +X6X1XX.XX6X<X:X:X:X:X:X:X4X-XK @X4X,X| ' X X X X X X X X X X     ",
"                X X X X     + H c ` OX@XK =X4X:X:X:X:X:X:X:X3X5X|  X@X[.x { g X X X X X X X X X X X ",
"                            3 R ~.e.g } K 2X3X:X:X:X:X:X:X:X>X7X|.` ` B Q.q./ O         O X X X X X ",
"                          : P ~.Q.N g ^ _.8X1X:X:X:X:X:X:X:X:X6X&X{ > ( y.!.N ,         X X X X X X ",
"                          3 W /.V H   ] %X8X:X:X:X:X:X:X:X:X:X4X,X] $ 2 W !.u.Y                     ",
"      X X X X X X X X X   Y Y.R.~ X . ` ,X5X:X:X:X:X:X:X:X:X:X3X8X..2 X ' q.!.H     X . X X X X     ",
"      X X X X X X X X X . Y E.4.Y   . ` 6X4X:X:X:X:X:X:X:X:X:X:X8X|.Y X # N !.E     X X X X X X     ",
"      X X X X X X X X X O Y i.4.Y O   U oX@X:X1X<X>X<X:X<X<X:X#X*X..4 X Y B ^.L     X X X X X X     ",
"      X X X X X X X X X X 2 R Q.s h 3 J q g T X.{..X.X X}._...I q F < ~ s e.i.Y     X X X X X X     ",
"      X X X X X X O X X X : Y ! d S > h @.y r r 9 0 0 0 9 9 r t +.f , / ; q.~ .     X X X X X X     ",
"      X X X X X X X X X X X $ F E L < a @.t 7 7 7 0 j w 8 7 7 9 +.e 1 ~ R ( X       X X X X X X X X ",
"      X X X X X X X X X X X X X # X + w @.y y t 8 Y % 6 7 t t y +.0 1 @ .           X X X X X X X X ",
"      X X X X X X X X X X X X X X   # w +.y y O.e # X X f O.y y O.t S X             X X X X X X X X ",
"      X X X X X X X X X X X X X X   : t +.y y y h X X X P u u y u y Y X             X X X X X X X X ",
"      X X O X X X X X X X X X X X   g u y t y y H X X X g y y t t O.J O             X X X X X X X X ",
"      X X X X X X X X X X X       1 = y r 9 9 t H O X X 2 r r 9 r t * U             X X X X X X     ",
"      X X X X X X X X X           $ @ o & * * o 4 X X X @ o * * * o O # #           X X X X O X     ",
"      X X X X X X X X @             $ < 2 5 A A X X X X X A D I 6 5 A @             X X X X X X     ",
"X X       X X X X X X X X X X X X . X . X X X X         .               X X             X X X X X X ",
"                X @ X   X X X X X X X X X X X X . X                   X X X             X X X X X X "
};
