/* XPM */
static char *_652302886081[] = {
/* columns rows colors chars-per-pixel */
"50 50 133 2 ",
"   c #574533",
".  c #5A4A3B",
"X  c #604C36",
"o  c #624D3B",
"O  c #67513C",
"+  c #665443",
"@  c #685543",
"#  c #6E5946",
"$  c #6D5C48",
"%  c #785F45",
"&  c #735F4A",
"*  c #7B6146",
"=  c #76624C",
"-  c #7C634B",
";  c #786654",
":  c #7E6A55",
">  c #7F6E5B",
",  c #746355",
"<  c #82674C",
"1  c #8A6D4F",
"2  c #836C54",
"3  c #8C6E50",
"4  c #826E5A",
"5  c #8A7155",
"6  c #84715C",
"7  c #8A745C",
"8  c #927453",
"9  c #987957",
"0  c #93775A",
"q  c #92795E",
"w  c #997D5E",
"e  c #867461",
"r  c #8D7660",
"t  c #8E7A63",
"y  c #8F7C6A",
"u  c #947D64",
"i  c #997F63",
"p  c #937E69",
"a  c #A1825E",
"s  c #978267",
"d  c #9B8164",
"f  c #96826C",
"g  c #9C846B",
"h  c #9B8671",
"j  c #9E8A75",
"k  c #9E8D7A",
"l  c #A28464",
"z  c #AB8B65",
"x  c #A2876A",
"c  c #A3896C",
"v  c #A98C6C",
"b  c #B08D66",
"n  c #B08E69",
"m  c #B3916B",
"M  c #A38C73",
"N  c #A98E73",
"B  c #A18E7A",
"V  c #A79076",
"C  c #AB9275",
"Z  c #A6917B",
"A  c #AC957B",
"S  c #AE987E",
"D  c #B49673",
"F  c #B79876",
"G  c #BB9C76",
"H  c #B1977B",
"J  c #B39A7D",
"K  c #BA9D7C",
"L  c #BEA17D",
"P  c #C0A17D",
"I  c #A49381",
"U  c #A99681",
"Y  c #AE9A83",
"T  c #B49D83",
"R  c #B89E82",
"E  c #B39E89",
"W  c #B6A086",
"Q  c #BBA285",
"!  c #B5A18B",
"~  c #BBA58B",
"^  c #BEA88E",
"/  c #B7A591",
"(  c #BAA791",
")  c #BDAA92",
"_  c #BFAD98",
"`  c #C2A584",
"'  c #C5A986",
"]  c #CBAB83",
"[  c #C1A78A",
"{  c #C3AA8D",
"}  c #C9AE8D",
"|  c #CDB28E",
" . c #D0B38F",
".. c #C3AD93",
"X. c #C8AF91",
"o. c #C2AF99",
"O. c #C6B096",
"+. c #CBB295",
"@. c #C5B29B",
"#. c #CBB59B",
"$. c #CEB89E",
"%. c #D1B695",
"&. c #D2B896",
"*. c #D0B79A",
"=. c #D2BB9D",
"-. c #D9BE9C",
";. c #C7B5A0",
":. c #CAB7A1",
">. c #CDBAA3",
",. c #CDBCA8",
"<. c #D2BDA3",
"1. c #D8BFA2",
"2. c #D1BFA9",
"3. c #D6C1A5",
"4. c #DAC3A5",
"5. c #D5C2AB",
"6. c #D9C5AC",
"7. c #DCC8AD",
"8. c #D6C5B1",
"9. c #D9C7B1",
"0. c #DCCAB3",
"q. c #DECEB8",
"w. c #DFD1BD",
"e. c #E1CCAD",
"r. c #E1CEB5",
"t. c #E0CFBA",
"y. c #E3D1B6",
"u. c #E3D2BC",
"i. c #E4D6C2",
"p. c #E8D7C1",
"a. c #E7D9C5",
"s. c #E9DAC4",
"d. c None",
/* pixels */
"~ ..3.^ t Z 9.>.+.<.<./ @.>.<.:.8.8.! ;.5.5.5.5.<.<.@.) 6.9.6.,.:.& r H <.2.k ,.:._ k ,.:.:.8.,.B ~ ",
"( ~ :.3.O.s Z j #.@.3.3.@.<.,.#.:.:._ _ #.5.1.,.>.5.>.T 5.5.9.2.*.e @.<.<.8.Y :.:...I ,.,.:.( :.Y U ",
"$.:.5.>.$.+.7 t 5.^ #.3.#.:._ ! O.~ _ @...#.5.#.:.<.#.Z >.9.5.@.@.B 9.>.<.5.! ,.,.o.k @.<.:.) @.E u ",
"..:.5.<.$.=.X.A <.O...@.>.>.V M W A _ _ ^ ..,.O...<.) 6 ..9.9...T o.t.@.<.9.! 5.6.6.k ! @.( ) @.W f ",
"T ..1.<.3.3.+.W 5.3.>.:.3.>.[ W j * J ~ ~ $.$.#.{ ..u @ ~ 5.0.#.A 0.i.2.1.r.E ..,.5.( I ) f h Z Z Y ",
"H ~ 2.<.+.6.| T 6.5.6.$.#.$.J >.A A A g 7 J { J h u N E f :.<.) E 9.q.2.9.t.o.C T ..Y & x i N ) ) ) ",
"~ T ..+.X.<.+.Q 5.9.0.3.#.O.c A { 7.7.&.W c s w 4 c T #.g N X.! 1.2.:.0.t.t.>.H N 7 5 . O Q <.2.:.,.",
"*.E A { ` +.X...<.5.9.5.$.^ O.s S O.5.5.7.5.g V { V T X.[ 4 r ) t.0.:.2.t.t.<.M M Z c u 2 @.8.,.,.8.",
"X.1.R H ` +.[ ,.2.1.1.1.<...+.c W #.>.$.#.O.[ } +.R U +.*.V . ,.p.6.2.>.1.i.>.4 p { C i 0 E >.,.,.@.",
"~ <.X.K [ #.R Y >.=.>.2.$...O.T $.$.6.6.3.4.Q +.1.{ B { X.~ j >.t.9.1.#.2.2.>.V t U E i x R o.o.o.o.",
"Y } { Q ` } M 4 p i F X.+.+...>.0.3.$.6.6.7.~ ' 6.+.T X.*.R E #.1.2.6.,.<.<.A # p p E T i R :.o.:.o.",
"T =.<.*.{ X.R #.@.E A M g W +.6.y.y.6.5.3.3.T [ -.-.A { 1.{ c >.r.6.<.X.R i u Z M M ( E c A >.<.,.@.",
"p p R +.X.} +.>.<.2.1.<.T i ^ 1.0.u.y.5.>.>.C { 4.4.J ~ 1.X.x <.e.6.X.z 9 c ..X.p p U R M T E 2.@.) ",
"Z c h u E [ #.>.*.1.9.2.6.R ^ 4.3.0.u.7.6.5.! <.e.e.P ` %.' 7 X.1.4.} 3 A >.<.2.N u p ~ H T E 2.<.>.",
"[ >.2.@.>.+...:.,.<.>.>.1.<.H ^ e.e.7.y.0.5.Q ..+.4.+.%.%.R @ R *.Q i T ..<.2.1.+.y p ~ M c T <.2.,.",
"Z @.>.>.2.2.~ ..>.>.+.....T g # J 4.7.1.7.<.g A K 4.{ P %.K N H r t R +.#.<.1.9.r.p i U R A s @.0.:.",
"/ 3.5.$.3.3.@.$.#.#.+...v * ~ +.c S &.-.4.$.M ^ J C s g L j $.$.4 ~ +.@.<.6.5.0.0.E N R H v 7 ~ 8.<.",
"$.5.8.7.5.$.@.3.5.+.#.{ v Q $.7.y.3.{ ~ =.&.^ 3.&.X.W C 6 ; $.^ ~ A } ..6.q.5.6.6.@.p T w v < B R 2 ",
"5.0.q.q.w.$.H Q Q X.Q h 3.0.y.1.3.5.y.3.L | ~ #.O.| } =.~ Z $.@.5...` J ..5.5.5.1.1.e g i i * @ c N ",
"5.7.0.q.w.~ ; s l g - 7 O.^ +.q.5.&.4.q.=.L ^ &.^ } X.3.^ ^ 3.@.5.5.A K ..@.2.>.,.9.U p c N u o j ) ",
"8.q.q.0.O.J S C $.3.Q ^ &.Q J >.q.0.3.e.4.^ O.<.O.3.3.$.~ ^ 5.3.6.0.#.Z ..#.2.>.5.9.@.p i c 5   6 E ",
"3.w.w.3.^ _ ^ ..$.6.$.1.7.q.+.W >.6.6.4.4.~ _ 3.O.3.3.+.Y _ >.@.0.6.5.g J ..>.>.5.6.<.T g 1 3 = 6 Y ",
"$.0.3.^ @._ _ &.#.7.+.6.u.u.7.+.>.>.3.3.4._ &.@.#.$.5.3.! #.3._ 6.5.6.^ M T #.<.<.#.+.p X w X...e ! ",
"6.6.+.@.$.W S X.=.5.#.6.u.u.i.y.e.6.<.<.e.W _ &.$.3.5.5./ @.3.@.>.,.5.5.! c K <.3.@.H u J +.@.9.I k ",
"A ! @.5.5.#.W J @.O.J >.6.0.y.u.q.q.6.5.7.W Y ^ @.#.;.3./ >.$.O.) #.#.6.+.g c #.+.u c *.<.:.( ,.,.j ",
"f Y 5.0.8.5.! 7 M A j ..#.W ,.0.3.3.7.6.5.) ! _ $.$.3.8./ ( @.O.) ^ o.9.6.@.; 6 N p U 2.>.+.#.o.8.Y ",
"! @.3.8.7.6._ +.$.2.+.+...A / O.$.=.3.5.5.O.( / #.3.,.5.! ~ U / ;.,.,.1.+.#.4 = =.,.h o.<.2.2.2.2.,.",
"^ _ 3.9.6.3._ #.1.=.+.O.~ $.i.,.^ W ) $.#.^ _ _ _ #.;.:.W O.) M I ) 8.<...A c #.<.5.U E :.<.;.:.,.,.",
"! _ 5.q.5.=.@.>.3.$.+.+.L @.u.s.u.3.j > $ f ~ ~ W ^ O.A ^ 3.=.J s E 5.4.Q 5 { #.@.:.@.Z E #.+...:.:.",
"@.;.8.8.3.>...>.3.+.=.+.^ 5.y.r.s.s.e.^ & 7 g t s M h . f 3.%.| T Y ! N w F =.<.=.<.9.h U :.#...;.,.",
"_ :.8.8.6.3.O.#.$.<.$.+.L 3.6.e.y.u.e.0.~ Q T L V L J c s { 3.$.+.Z u % a -.6.1.>.5.0.T p o.<.Y E B ",
"h >.9.8.5.3.~ A $.6.5.O.A 8.q.y.r.q.0.8.) #.O.#.O.{ } +.+.C W $.N s O.Q m <.0.r.9.2.6.2.p E o.{ V 4 ",
"f _ 5.8.3.>.S 6 +.3.<.+.W 6.u.0.a.a.u.5...#.=.$.} +.| +.+.=.Q s Q +.$.4.Q +.6.8.8.6.0.0.! / _ S u B ",
"! ! ;.5.3.5.A V C F { O.~ O.w.7.i.s.0.5...$.{ &.+.=.=.4.=.$.&.^  . .%.7...>.0.3.8.q.8.w.>.! ^ 7 M U ",
"8.! _ #.5._ ^ 6.} Q W M ^ =.7.6.r.s.p.,.A +.O.#.+.&.1.=.+.X.' H | -.$.4.^ Q 3.3.0.8.3.9.$.# < c E E ",
"9.:.E ( A L $.3.y.7.+.V h +.6.6.6.u.t.<.s ' +.+.+.1.3.#.' { %.L D Q | | ` S >.3.5.3.3.3.V * - A / :.",
"5.8.! s z L | ..a.u.6.6.W j >.y.9.u.y.{ 5 G ` X.+.=.=.' Q &.&.' L L b L P L W +.=.#.{ g Z ..s T Y / ",
"8.3.$.L 3.$.7.@.w.u.3.4.6.~ f #.X.@.#.A 6 } P ' %.<.=.X.| -.&.^ &.=.' %.P P C H { T c A :.:.M j Y ) ",
"w.8.3.$.3.$.7.8.9.0.$.3.6.4.V u u g T H 2 u z l P ^ O.X.+.$.%.L ~ -.=.4. .P &.s i C J ! ( ( N p I ( ",
"8.8._ ^ =.O.3.0.6.0.6.7.y.+.A O.+.X.<.<.s 2 d x J L V A L C s = v L =.&.&.| &.q 2 Q c Z ! @.W y ! T ",
"2.9.>...e.@.+.#.5.6.<.0.#.M ..3.*.X...#.{ 1.<.<.1.3.X.-.1.+.Q 9 8 m ] P R ' ' C c Q :...) ,.;.y ! ( ",
"o.Y U j :.:.X.<.5.6.=.{ k ) #.#.*.X.{ #.X.1.2.1.<.1.,.<.7.<.%.G l m G G n P } N J <.:.( o.o.;.p ( ! ",
"N N o./ A M M V T @.{ T { +.+.=.*.>.X.<.{ 2.2.*...#.#.@.1.5.X.` F G ` } m a 3 % M 2.:.) @.@.:.M Y ~ ",
"X.~ :.,.<.#...E Z e f ......~ { X.>.o.#.~ 2.2.<.<.@.X...@.6.r.` l m z z z l 7 < i #.:.>.,.>.,.! Y _ ",
"{ E ( o.#.<.+.{ o.{ V E ^ ..[ ..[ ..{ [ H 2.0.2.6.9.#.X.[ ..9.+.* w 9 l X.<.R v K ! @.:.>.:.o.E t T ",
"! ^ T T E o.#.....R N H Q o...@.X.~ ..R M ~ 9.8.,.5.:.o.^ @.*.@.& q c [ >.X.C F H B >.;.@.o.{ ~ = < ",
"W ( ( ( ....+...{ R J [ { @.[ R [ E ~ R T T @.<.<.>.6.:.....+...R %.[ o...H v D R T :.#.:.o.;...= X ",
"f ~ ( ! { o.;.@.+.X.E ~ E ^ R A R E E Y T { T X...<.8.q.:.o.<.J Q +.R [ *.*.N g X.U :.,.>.o.;.{ 5 = ",
"d.! @...! ..#...O.^ T T N A R [ ~ T / E M ..T ~ <.2.<.0.2.>.#.T T +.' ) #.#.Q % h f @.:.@._ :.) 2 A ",
"d.d.! ..@._ ..o.O.Y A A i 0 h o.[ U ..[ c M R R +.<.<.*.>.:.6.A Z [ ~ ^ X.@.#.i 4 f Z @.@.@.;.O.: V "
};
